<svg xmlns="http://www.w3.org/2000/svg" xmlns:xlink="http://www.w3.org/1999/xlink" xmlns:lucid="lucid" width="1716" height="1047.4"><g transform="translate(0 7.400000000000013)" lucid:page-tab-id="0_0"><path d="M0 0h1870.87v1322.83H0z" fill="#fff"/><path d="M200 102a30 30 0 0 1 30-30h1220a30 30 0 0 1 30 30v768a30 30 0 0 1-30 30H230a30 30 0 0 1-30-30z" stroke="#474747" fill-opacity="0"/><path d="M308 74.4v3.54c0 6.42-7.1 13.05-15.76 13.05h-46.48C237.1 91 230 84.35 230 77.93V74.4z" fill="#9d5125"/><path d="M260.03 40c8.03 0 14.82 4.4 18.17 11.67 4.6-3.14 10.92-1.98 14.04 2.65 1.17 1.64 1.7 3.32 1.8 5.3 7.87.68 13.95 8.25 13.95 14.27v1.3c0 6.45-7.1 13-15.76 13h-46.5c-8.64 0-15.74-6.55-15.74-13v-1.3c0-5.02 4.2-11.87 10.06-13.56v-.57c.08-10.95 8.97-19.82 19.97-19.77z" fill="#f58535"/><path d="M249.54 63.13l-5.2 18.2h3.04l1.17-4.43h5.38l1.1 4.43h3.05l-4.8-18.2zm-.47 11.4l2.22-8.98 2.1 8.97zM271.2 77.34h-.03l-2.47-14.2h-3.1l-2.4 14.13h-.06l-2.4-14.14h-2.95l3.53 18.2h3.38l2.35-13.7h.06l2.36 13.7h3.4l3.64-18.2h-2.9l-2.4 14.2zM285.9 71.4l-1.98-.72c-1.93-.7-2.74-1.53-2.74-3.1-.17-1.26.74-2.43 2-2.6.16-.02.3-.02.45-.02 1.26-.17 2.4.72 2.58 1.96.04.25.03.44 0 .68v.38h2.93v-.4c0-1.9-.5-4.8-5.18-4.8-3.44 0-5.7 1.84-5.7 5.16 0 2.6 1.1 3.97 3.82 5l2 .68c1.6.23 2.73 1.6 2.64 3.2.04 1.45-1.08 2.64-2.5 2.68h-.28c-2 0-3-1.12-3-3.33v-.47h-2.9v.44c0 2.54 1.02 5.53 5.52 5.53 3.7 0 6.07-1.6 6.07-5.48.04-2.5-1.1-3.9-3.7-4.8z" fill="#fff"/><use xlink:href="#a" transform="matrix(1,0,0,1,200,870) translate(585.5246913580247 11.11111111111111)"/><use xlink:href="#b" transform="matrix(1,0,0,1,200,870) translate(641.4506172839506 11.11111111111111)"/><path d="M220 142a30 30 0 0 1 30-30h1140a30 30 0 0 1 30 30v688a30 30 0 0 1-30 30H250a30 30 0 0 1-30-30z" stroke="#474747" fill-opacity="0"/><path d="M328 114.4v3.54c0 6.42-7.1 13.05-15.76 13.05h-46.48c-8.66 0-15.75-6.64-15.75-13.06v-3.54z" fill="#9d5125"/><path d="M280.03 80c8.03 0 14.82 4.4 18.17 11.67 4.6-3.14 10.92-1.98 14.04 2.65 1.17 1.64 1.7 3.32 1.8 5.3 7.87.68 13.95 8.25 13.95 14.27v1.3c0 6.45-7.1 13-15.76 13h-46.5c-8.64 0-15.74-6.55-15.74-13v-1.3c0-5.02 4.2-11.87 10.06-13.56v-.57c.08-10.95 8.97-19.82 19.97-19.77z" fill="#f58535"/><path d="M268.9 103.13h3.08l3.1 14.58 3.32-14.54h3.1l-4.6 18.2h-3.7zM283.37 103.13h5.77c3.5 0 5.04 2.2 5.04 5.3 0 3.1-1.9 5.4-5.33 5.4h-2.57v7.53h-2.9zm2.9 8.5h2.08c1.56 0 2.9-.83 2.9-3.14 0-1.98-.78-3.17-3.1-3.17h-1.87zM307.8 114.83v.38c0 3.32-1.3 6.52-5.6 6.52-4.6 0-6.04-2.97-6.04-9.47s1.43-9.46 6.05-9.46c5.2 0 5.54 3.8 5.54 5.7v.37h-2.9v-.3c0-1.7-.5-3.64-2.6-3.57-2.08.08-3.1 1.35-3.1 7.22 0 5.87.92 7.3 3.14 7.3 2.42 0 2.7-2.7 2.7-4.42v-.3z" fill="#fff"/><use xlink:href="#c" transform="matrix(1,0,0,1,220,830) translate(504.5061728395062 11.11111111111111)"/><use xlink:href="#d" transform="matrix(1,0,0,1,220,830) translate(569.7530864197531 11.11111111111111)"/><use xlink:href="#b" transform="matrix(1,0,0,1,220,830) translate(642.4691358024692 11.11111111111111)"/><path d="M260 170a30 30 0 0 1 30-30h1060a30 30 0 0 1 30 30v240a30 30 0 0 1-30 30H290a30 30 0 0 1-30-30z" fill-opacity="0"/><path d="M272.37 145.73l4-2.46 4.36-1.8 4.58-1.1h14.8m14.78 0l29.58-.02m14.78 0l29.58-.02m14.8 0h29.56m14.8-.02h29.56m14.8 0h29.57m14.8-.02h29.57m14.8 0l29.56-.02m14.8 0l29.56-.02m14.78 0h29.57m14.8-.02h29.57m14.78 0l29.58-.03m14.8 0l29.56-.02m14.8 0l29.56-.02m14.8 0h29.57m14.78-.02h29.58m14.78 0l29.6-.02m14.78 0l29.57-.02m14.8 0h29.56m14.8-.02h29.58m14.78 0l29.58-.02m14.8 0l29.56-.02m14.8 0h29.56m14.8-.02h29.57m14.78 0l14.8-.02 4.7.37 4.57 1.1 4.35 1.8m10.65 9.1l2.46 4 1.8 4.36 1.1 4.58.03 16.32m.02 16.3l.05 32.64m.02 16.3l.05 32.64m.03 16.3l.05 32.64m.02 16.3l.05 32.63m.03 16.32l.02 16.3-.37 4.7-1.1 4.57-1.8 4.35m-9.1 10.65l-4 2.46-4.36 1.8-4.58 1.1h-14.8m-14.78 0l-29.58.02m-14.78 0l-29.58.02m-14.8 0h-29.56m-14.8.02h-29.56m-14.8 0h-29.57m-14.8.02h-29.57m-14.8 0l-29.56.02m-14.8 0l-29.56.02m-14.78 0h-29.57m-14.8.02H896.3m-14.78 0l-29.58.03m-14.8 0l-29.56.02m-14.8 0l-29.56.02m-14.8 0h-29.57m-14.78.02h-29.58m-14.78 0l-29.6.02m-14.78 0l-29.57.02m-14.8 0H541.4m-14.8.02h-29.58m-14.78 0l-29.58.02m-14.8 0l-29.56.02m-14.8 0h-29.56m-14.8.02h-29.57m-14.78 0L290 440l-4.7-.37-4.57-1.1-4.35-1.8m-10.65-9.1l-2.46-4-1.8-4.36-1.1-4.58-.03-16.32m-.02-16.3l-.05-32.64m-.02-16.3l-.05-32.64m-.03-16.3l-.05-32.64m-.02-16.3l-.05-32.63m-.03-16.32L260 170l.37-4.7 1.1-4.57 1.8-4.35" stroke="#f7981f" stroke-width="3" fill="none"/><use xlink:href="#e" transform="matrix(1,0,0,1,260,410) translate(467.19135802469134 11.11111111111111)"/><use xlink:href="#f" transform="matrix(1,0,0,1,260,410) translate(583.7345679012345 11.11111111111111)"/><use xlink:href="#g" transform="matrix(1,0,0,1,260,410) translate(640.4629629629629 11.11111111111111)"/><path d="M260 490a30 30 0 0 1 30-30h1060a30 30 0 0 1 30 30v300a30 30 0 0 1-30 30H290a30 30 0 0 1-30-30z" fill-opacity="0"/><path d="M272.37 465.73l4-2.46 4.36-1.8 4.58-1.1h14.8m14.78 0l29.58-.02m14.78 0l29.58-.02m14.8 0h29.56m14.8-.02h29.56m14.8 0h29.57m14.8-.02h29.57m14.8 0l29.56-.02m14.8 0l29.56-.02m14.78 0h29.57m14.8-.02h29.57m14.78 0l29.58-.03m14.8 0l29.56-.02m14.8 0l29.56-.02m14.8 0h29.57m14.78-.02h29.58m14.78 0l29.6-.02m14.78 0l29.57-.02m14.8 0h29.56m14.8-.02h29.58m14.78 0l29.58-.02m14.8 0l29.56-.02m14.8 0h29.56m14.8-.02h29.57m14.78 0l14.8-.02 4.7.37 4.57 1.1 4.35 1.8m10.65 9.1l2.46 4 1.8 4.36 1.1 4.58.02 14.52m.02 14.5l.03 29.02m.02 14.5l.03 29.03m.02 14.5l.04 29.03m.02 14.5l.04 29.03m.02 14.5l.03 29.02m.03 14.5l.03 29.03m.02 14.5L1380 790l-.37 4.7-1.1 4.57-1.8 4.35m-9.1 10.65l-4 2.46-4.36 1.8-4.58 1.1h-14.8m-14.78 0l-29.58.02m-14.78 0l-29.58.02m-14.8 0h-29.56m-14.8.02h-29.56m-14.8 0h-29.57m-14.8.02h-29.57m-14.8 0l-29.56.02m-14.8 0l-29.56.02m-14.78 0h-29.57m-14.8.02H896.3m-14.78 0l-29.58.03m-14.8 0l-29.56.02m-14.8 0l-29.56.02m-14.8 0h-29.57m-14.78.02h-29.58m-14.78 0l-29.6.02m-14.78 0l-29.57.02m-14.8 0H541.4m-14.8.02h-29.58m-14.78 0l-29.58.02m-14.8 0l-29.56.02m-14.8 0h-29.56m-14.8.02h-29.57m-14.78 0L290 820l-4.7-.37-4.57-1.1-4.35-1.8m-10.65-9.1l-2.46-4-1.8-4.36-1.1-4.58-.02-14.52m-.02-14.5l-.03-29.02m-.02-14.5l-.03-29.03m-.02-14.5l-.04-29.03m-.02-14.5l-.04-29.03m-.02-14.5l-.03-29.02m-.03-14.5l-.03-29.03m-.02-14.5L260 490l.37-4.7 1.1-4.57 1.8-4.35" stroke="#f7981f" stroke-width="3" fill="none"/><use xlink:href="#h" transform="matrix(1,0,0,1,260,790) translate(470.27777777777777 11.11111111111111)"/><use xlink:href="#f" transform="matrix(1,0,0,1,260,790) translate(580.6481481481482 11.11111111111111)"/><use xlink:href="#i" transform="matrix(1,0,0,1,260,790) translate(637.3765432098766 11.11111111111111)"/><path d="M840 202a30 30 0 0 1 30-30h420a30 30 0 0 1 30 30v188a30 30 0 0 1-30 30H870a30 30 0 0 1-30-30z" stroke="#474747" fill-opacity="0"/><path d="M901.97 160.24v-5.9c0-7.25-5.88-13.13-13.12-13.13-7.24 0-13.12 5.9-13.12 13.14v5.9h6.64v-5.9c0-3.58 2.9-6.5 6.48-6.5 3.57 0 6.48 2.92 6.48 6.5v5.9h6.64z" fill="#876a22"/><path d="M901.98 160.26h5.42v20.83H870v-20.84h5.72v-7.1c0-7.28 5.87-13.16 13.13-13.16 7.26 0 13.13 5.88 13.13 13.15v7.1zm-6.66 0v-7.1c0-3.6-2.88-6.5-6.47-6.5-3.6 0-6.47 2.9-6.47 6.5v7.1h12.94z" fill="#daa835"/><path d="M870 181.1h37.4v.9H870z" fill="#876a22"/><use xlink:href="#j" transform="matrix(1,0,0,1,840,390) translate(157.96296296296296 11.11111111111111)"/><use xlink:href="#k" transform="matrix(1,0,0,1,840,390) translate(233.14814814814815 11.11111111111111)"/><use xlink:href="#g" transform="matrix(1,0,0,1,840,390) translate(309.69135802469134 11.11111111111111)"/><path d="M840 522a30 30 0 0 1 30-30h420a30 30 0 0 1 30 30v188a30 30 0 0 1-30 30H870a30 30 0 0 1-30-30z" stroke="#474747" fill-opacity="0"/><path d="M901.97 480.24v-5.9c0-7.25-5.88-13.13-13.12-13.13-7.24 0-13.12 5.9-13.12 13.14v5.9h6.64v-5.9c0-3.58 2.9-6.5 6.48-6.5 3.57 0 6.48 2.92 6.48 6.5v5.9h6.64z" fill="#876a22"/><path d="M901.98 480.26h5.42v20.83H870v-20.84h5.72v-7.1c0-7.28 5.87-13.16 13.13-13.16 7.26 0 13.13 5.88 13.13 13.15v7.1zm-6.66 0v-7.1c0-3.6-2.88-6.5-6.47-6.5-3.6 0-6.47 2.9-6.47 6.5v7.1h12.94z" fill="#daa835"/><path d="M870 501.1h37.4v.9H870z" fill="#876a22"/><use xlink:href="#j" transform="matrix(1,0,0,1,840,710) translate(159.81481481481484 11.11111111111111)"/><use xlink:href="#l" transform="matrix(1,0,0,1,840,710) translate(235.00000000000003 11.11111111111111)"/><use xlink:href="#i" transform="matrix(1,0,0,1,840,710) translate(307.8395061728395 11.11111111111111)"/><path d="M820 166a6 6 0 0 1 6-6h508a6 6 0 0 1 6 6v588a6 6 0 0 1-6 6H826a6 6 0 0 1-6-6z" fill="#fff" fill-opacity="0"/><path d="M820.73 163.16l.42-.7.6-.7.62-.52m1.47-.82l.3-.13.92-.23h1.5m2 0h3m1.98 0h3m2 0h3m1.98 0h3m2 0h3m1.98 0h3m2 0h3m1.98 0h3m2 0h2.98m2 0h3m2 0h2.98m2 0h3m2 0h2.98m2 0h3m2 0h2.98m2 0h3m2 0h2.98m2 0h3m2 0h2.98m2 0h3m2 0h2.98m2 0h3m2 0h2.98m2 0h3m1.98 0h3m2 0l3-.02m1.98 0h3m2 0h3m1.98 0h3m2 0h3m1.98 0h3m2 0h3m1.98 0h3m2 0h2.98m2 0h3m2 0h2.98m2 0h3m2 0h2.98m2 0h3m2 0h2.98m2 0h3m2 0h2.98m2 0h3m2 0h2.98m2 0h3m2 0h2.98m2 0h3m2 0h2.98m2 0h3m1.98 0h3m2 0h3m1.98 0h3m2 0h3m1.98 0l3-.02m2 0h3m1.98 0h3m2 0h3m1.98 0h3m2 0h2.98m2 0h3m2 0h2.98m2 0h3m2 0h2.98m2 0h3m2 0h2.98m2 0h3m2 0h2.98m2 0h3m2 0h2.98m2 0h3m2 0h2.98m2 0h3m1.98 0h3m2 0h3m1.98 0h3m2 0h3m1.98 0h3m2 0h3m1.98 0h3m2 0h3m1.98 0h3m2-.02h2.98m2 0h3m2 0h2.98m2 0h3m2 0h2.98m2 0h3m2 0h2.98m2 0h3m2 0h2.98m2 0h3m2 0h2.98m2 0h3m2 0h2.98m2 0h3m2 0h2.98m2 0h3m1.98 0h3m2 0h3m1.98 0h3m2 0h3m1.98 0h1.5l.94.07.32.08m1.58.58l.7.42.7.6.52.62m.82 1.47l.13.3.23.92v1.5m0 2v3m0 2v2.98m0 2v3m0 2v2.98m0 2v3m0 2v2.98m0 2v3m0 2v3m0 1.98v3m0 2v3m0 2v2.98m0 2v3m0 2v2.98m0 2v3m0 2v2.98m0 2v3m0 2v3m0 1.98v3m0 2v3m0 1.98v3m0 2v3m0 2v2.98m0 2v3m0 2v2.98m0 2v3m0 2v2.98m0 2v3m0 2v3m0 1.98v3m0 2l.02 3m0 2v2.98m0 2v3m0 2v2.98m0 2v3m0 2v2.98m0 2v3m0 2v3m0 1.98v3m0 2v3m0 1.98v3m0 2v3m0 2v2.98m0 2v3m0 2v2.98m0 2v3m0 2v2.98m0 2v3m0 2v3m0 1.98v3m0 2v3m0 2v2.98m0 2v3m0 2v2.98m0 2v3m0 2v2.98m0 2v3m0 2v3m0 1.98v3m0 2v3m0 1.98v3m0 2v3m0 2l.02 2.98m0 2v3m0 2v2.98m0 2v3m0 2v3m0 1.98v3m0 2v3m0 1.98v3m0 2v3m0 2v2.98m0 2v3m0 2v2.98m0 2v3m0 2v2.98m0 2v3m0 2v3m0 1.98v3m0 2v3m0 1.98v3m0 2v3m0 2v2.98m0 2v3m0 2v2.98m0 2v3m0 2v3m0 1.98v3m0 2v3m0 1.98v3m0 2v3m0 2v2.98m0 2v3m0 2v2.98m0 2l.02 3m0 2v2.98m0 2v3m0 2v3m0 1.98v3m0 2v3m0 1.98v3m0 2v3m0 2v2.98m0 2v3m0 2v2.98m0 2v3m0 2v3m0 1.98v3m0 2v3m0 1.98v3m0 2v3m0 2v2.98m0 2v3m0 2v2.98m0 2v3m0 2v2.98m0 2v3m0 2v3m0 1.98v1.5l-.07.94-.08.32m-.58 1.58l-.42.7-.6.7-.62.52m-1.47.82l-.3.13-.92.23h-1.5m-2 0h-3m-1.98 0h-3m-2 0h-3m-1.98 0h-3m-2 0h-3m-1.98 0h-3m-2 0h-3m-1.98 0h-3m-2 0h-2.98m-2 0h-3m-2 0h-2.98m-2 0h-3m-2 0h-2.98m-2 0h-3m-2 0h-2.98m-2 0h-3m-2 0h-2.98m-2 0h-3m-2 0h-2.98m-2 0h-3m-2 0h-2.98m-2 0h-3m-2 0h-2.98m-2 0h-3m-1.98 0h-3m-2 0l-3 .02m-1.98 0h-3m-2 0h-3m-1.98 0h-3m-2 0h-3m-1.98 0h-3m-2 0h-3m-1.98 0h-3m-2 0h-2.98m-2 0h-3m-2 0h-2.98m-2 0h-3m-2 0h-2.98m-2 0h-3m-2 0h-2.98m-2 0h-3m-2 0h-2.98m-2 0h-3m-2 0h-2.98m-2 0h-3m-2 0h-2.98m-2 0h-3m-2 0h-2.98m-2 0h-3m-1.98 0h-3m-2 0h-3m-1.98 0h-3m-2 0h-3m-1.98 0l-3 .02m-2 0h-3m-1.98 0h-3m-2 0h-3m-1.98 0h-3m-2 0h-2.98m-2 0h-3m-2 0h-2.98m-2 0h-3m-2 0h-2.98m-2 0h-3m-2 0h-2.98m-2 0h-3m-2 0h-2.98m-2 0h-3m-2 0h-2.98m-2 0h-3m-2 0h-2.98m-2 0h-3m-1.98 0h-3m-2 0h-3m-1.98 0h-3m-2 0h-3m-1.98 0h-3m-2 0h-3m-1.98 0h-3m-2 0h-3m-1.98 0h-3m-2 .02h-2.98m-2 0h-3m-2 0h-2.98m-2 0h-3m-2 0h-2.98m-2 0h-3m-2 0h-2.98m-2 0h-3m-2 0h-2.98m-2 0h-3m-2 0h-2.98m-2 0h-3m-2 0h-2.98m-2 0h-3m-2 0h-2.98m-2 0h-3m-1.98 0h-3m-2 0h-3m-1.98 0h-3m-2 0h-3m-1.98 0H826l-.94-.07-.32-.08m-1.58-.58l-.7-.42-.7-.6-.52-.62m-.82-1.47l-.13-.3-.23-.92v-1.5m0-2v-3m0-2v-2.98m0-2v-3m0-2v-2.98m0-2v-3m0-2v-2.98m0-2v-3m0-2v-3m0-1.98v-3m0-2v-3m0-2v-2.98m0-2v-3m0-2v-2.98m0-2v-3m0-2v-2.98m0-2v-3m0-2v-3m0-1.98v-3m0-2v-3m0-1.98v-3m0-2v-3m0-2v-2.98m0-2v-3m0-2v-2.98m0-2v-3m0-2v-2.98m0-2v-3m0-2v-3m0-1.98v-3m0-2l-.02-3m0-2v-2.98m0-2v-3m0-2v-2.98m0-2v-3m0-2v-2.98m0-2v-3m0-2v-3m0-1.98v-3m0-2v-3m0-1.98v-3m0-2v-3m0-2v-2.98m0-2v-3m0-2v-2.98m0-2v-3m0-2v-2.98m0-2v-3m0-2v-3m0-1.98v-3m0-2v-3m0-2v-2.98m0-2v-3m0-2v-2.98m0-2v-3m0-2v-2.98m0-2v-3m0-2v-3m0-1.98v-3m0-2v-3m0-1.98v-3m0-2v-3m0-2l-.02-2.98m0-2v-3m0-2v-2.98m0-2v-3m0-2v-3m0-1.98v-3m0-2v-3m0-1.98v-3m0-2v-3m0-2v-2.98m0-2v-3m0-2v-2.98m0-2v-3m0-2v-2.98m0-2v-3m0-2v-3m0-1.98v-3m0-2v-3m0-1.98v-3m0-2v-3m0-2v-2.98m0-2v-3m0-2v-2.98m0-2v-3m0-2v-3m0-1.98v-3m0-2v-3m0-1.98v-3m0-2v-3m0-2v-2.98m0-2v-3m0-2v-2.98m0-2l-.02-3m0-2v-2.98m0-2v-3m0-2v-3m0-1.98v-3m0-2v-3m0-1.98v-3m0-2v-3m0-2v-2.98m0-2v-3m0-2v-2.98m0-2v-3m0-2v-3m0-1.98v-3m0-2v-3m0-1.98v-3m0-2v-3m0-2v-2.98m0-2v-3m0-2v-2.98m0-2v-3m0-2v-2.98m0-2v-3m0-2v-3m0-1.98V166l.07-.94.08-.32" stroke="#d86613" fill="none"/><path d="M1052 160h56v56h-56v-56z" stroke="#fff" stroke-opacity="0" fill="#d86613"/><path d="M1071.68 183.73l-1.14 1.13 2.33 2.34H1060v1.6h12.87l-2.33 2.34 1.14 1.13 4.27-4.27-4.27-4.27zM1100 187.2h-12.87l2.33-2.34-1.14-1.13-4.27 4.27 4.27 4.27 1.14-1.13-2.33-2.34H1100v-1.6zM1079.2 170.63v12.87h1.6v-12.87l2.34 2.33 1.13-1.13-4.27-4.28-4.27 4.28 1.13 1.13 2.34-2.33zM1080.8 205.37V192.5h-1.6v12.87l-2.34-2.33-1.13 1.13 4.27 4.28 4.27-4.28-1.13-1.13-2.34 2.33z" stroke="#fff" stroke-opacity="0" fill="#fff"/><use xlink:href="#m" transform="matrix(1,0,0,1,820,231) translate(209.55 14.4)"/><use xlink:href="#n" transform="matrix(1,0,0,1,820,231) translate(251.55 14.4)"/><path d="M300 202a30 30 0 0 1 30-30h400a30 30 0 0 1 30 30v188a30 30 0 0 1-30 30H330a30 30 0 0 1-30-30z" stroke="#474747" fill-opacity="0"/><path d="M361.97 160.24v-5.9c0-7.25-5.88-13.13-13.12-13.13-7.24 0-13.12 5.9-13.12 13.14v5.9h6.64v-5.9c0-3.58 2.9-6.5 6.48-6.5 3.57 0 6.48 2.92 6.48 6.5v5.9h6.64z" fill="#876a22"/><path d="M361.98 160.26h5.42v20.83H330v-20.84h5.72v-7.1c0-7.28 5.87-13.16 13.13-13.16 7.26 0 13.13 5.88 13.13 13.15v7.1zm-6.66 0v-7.1c0-3.6-2.88-6.5-6.47-6.5-3.6 0-6.47 2.9-6.47 6.5v7.1h12.94z" fill="#daa835"/><path d="M330 181.1h37.4v.9H330z" fill="#876a22"/><use xlink:href="#o" transform="matrix(1,0,0,1,300,390) translate(152.28395061728395 11.11111111111111)"/><use xlink:href="#k" transform="matrix(1,0,0,1,300,390) translate(218.82716049382714 11.11111111111111)"/><use xlink:href="#g" transform="matrix(1,0,0,1,300,390) translate(295.3703703703703 11.11111111111111)"/><path d="M300 542a30 30 0 0 1 30-30h400a30 30 0 0 1 30 30v168a30 30 0 0 1-30 30H330a30 30 0 0 1-30-30z" stroke="#474747" fill-opacity="0"/><path d="M361.97 500.24v-5.9c0-7.25-5.88-13.13-13.12-13.13-7.24 0-13.12 5.9-13.12 13.14v5.9h6.64v-5.9c0-3.58 2.9-6.5 6.48-6.5 3.57 0 6.48 2.92 6.48 6.5v5.9h6.64z" fill="#876a22"/><path d="M361.98 500.26h5.42v20.83H330v-20.84h5.72v-7.1c0-7.28 5.87-13.16 13.13-13.16 7.26 0 13.13 5.88 13.13 13.15v7.1zm-6.66 0v-7.1c0-3.6-2.88-6.5-6.47-6.5-3.6 0-6.47 2.9-6.47 6.5v7.1h12.94z" fill="#daa835"/><path d="M330 521.1h37.4v.9H330z" fill="#876a22"/><use xlink:href="#o" transform="matrix(1,0,0,1,300,710) translate(152.28395061728395 11.11111111111111)"/><use xlink:href="#k" transform="matrix(1,0,0,1,300,710) translate(218.82716049382714 11.11111111111111)"/><use xlink:href="#i" transform="matrix(1,0,0,1,300,710) translate(295.3703703703703 11.11111111111111)"/><path d="M880 210a30 30 0 0 1 30-30h120a30 30 0 0 1 30 30v140a30 30 0 0 1-30 30H910a30 30 0 0 1-30-30z" stroke="#474747" stroke-width="3" fill-opacity="0"/><path d="M880 210a30 30 0 0 1 30-30h120a30 30 0 0 1 30 30v140a30 30 0 0 1-30 30H910a30 30 0 0 1-30-30z" fill="none"/><path d="M892.37 185.73l4-2.46 4.36-1.8 4.58-1.1 13.86-.04m13.86-.04l27.7-.1m13.86-.04l27.7-.08m13.87-.04L1030 180l4.7.37 4.57 1.1 4.35 1.8m10.65 9.1l2.46 4 1.8 4.36 1.1 4.58.04 16.08m.04 16.08l.1 32.15m.04 16.1l.08 32.15m.04 16.07L1060 350l-.37 4.7-1.1 4.57-1.8 4.35m-9.1 10.65l-4 2.46-4.36 1.8-4.58 1.1-13.86.04m-13.86.04l-27.7.1m-13.86.04l-27.7.08m-13.87.04L910 380l-4.7-.37-4.57-1.1-4.35-1.8m-10.65-9.1l-2.46-4-1.8-4.36-1.1-4.58-.04-16.08m-.04-16.08l-.1-32.15m-.04-16.1l-.08-32.15m-.04-16.07L880 210l.37-4.7 1.1-4.57 1.8-4.35" stroke="red" stroke-width="3" fill="none"/><use xlink:href="#p" transform="matrix(1,0,0,1,880,350) translate(20.33950617283952 11.11111111111111)"/><use xlink:href="#q" transform="matrix(1,0,0,1,880,350) translate(102.9320987654321 11.11111111111111)"/><path d="M1130 210a30 30 0 0 1 30-30h120a30 30 0 0 1 30 30v140a30 30 0 0 1-30 30h-120a30 30 0 0 1-30-30z" stroke="#474747" stroke-width="3" fill-opacity="0"/><path d="M1130 210a30 30 0 0 1 30-30h120a30 30 0 0 1 30 30v140a30 30 0 0 1-30 30h-120a30 30 0 0 1-30-30z" fill="none"/><path d="M1142.37 185.73l4-2.46 4.36-1.8 4.58-1.1 13.86-.04m13.86-.04l27.7-.1m13.86-.04l27.7-.08m13.87-.04L1280 180l4.7.37 4.57 1.1 4.35 1.8m10.65 9.1l2.46 4 1.8 4.36 1.1 4.58.04 16.08m.04 16.08l.1 32.15m.04 16.1l.08 32.15m.04 16.07L1310 350l-.37 4.7-1.1 4.57-1.8 4.35m-9.1 10.65l-4 2.46-4.36 1.8-4.58 1.1-13.86.04m-13.86.04l-27.7.1m-13.86.04l-27.7.08m-13.87.04L1160 380l-4.7-.37-4.57-1.1-4.35-1.8m-10.65-9.1l-2.46-4-1.8-4.36-1.1-4.58-.04-16.08m-.04-16.08l-.1-32.15m-.04-16.1l-.08-32.15m-.04-16.07L1130 210l.37-4.7 1.1-4.57 1.8-4.35" stroke="red" stroke-width="3" fill="none"/><use xlink:href="#p" transform="matrix(1,0,0,1,1130,350) translate(20.33950617283952 11.11111111111111)"/><use xlink:href="#q" transform="matrix(1,0,0,1,1130,350) translate(102.9320987654321 11.11111111111111)"/><path d="M880 535a30 30 0 0 1 30-30h120a30 30 0 0 1 30 30v135a30 30 0 0 1-30 30H910a30 30 0 0 1-30-30z" stroke="#474747" stroke-width="3" fill-opacity="0"/><path d="M880 535a30 30 0 0 1 30-30h120a30 30 0 0 1 30 30v135a30 30 0 0 1-30 30H910a30 30 0 0 1-30-30z" fill="none"/><path d="M892.37 510.73l4-2.46 4.36-1.8 4.58-1.1 13.86-.04m13.86-.04l27.7-.1m13.86-.04l27.7-.08m13.87-.04L1030 505l4.7.37 4.57 1.1 4.35 1.8m10.65 9.1l2.46 4 1.8 4.36 1.1 4.58.04 15.53m.04 15.52l.1 31.04m.04 15.5l.08 31.06m.04 15.52L1060 670l-.37 4.7-1.1 4.57-1.8 4.35m-9.1 10.65l-4 2.46-4.36 1.8-4.58 1.1-13.86.04m-13.86.04l-27.7.1m-13.86.04l-27.7.08m-13.87.04L910 700l-4.7-.37-4.57-1.1-4.35-1.8m-10.65-9.1l-2.46-4-1.8-4.36-1.1-4.58-.04-15.53m-.04-15.52l-.1-31.04m-.04-15.5l-.08-31.06m-.04-15.52L880 535l.37-4.7 1.1-4.57 1.8-4.35" stroke="red" stroke-width="3" fill="none"/><use xlink:href="#p" transform="matrix(1,0,0,1,880,670) translate(20.33950617283952 11.11111111111111)"/><use xlink:href="#q" transform="matrix(1,0,0,1,880,670) translate(102.9320987654321 11.11111111111111)"/><path d="M1130 530a30 30 0 0 1 30-30h120a30 30 0 0 1 30 30v140a30 30 0 0 1-30 30h-120a30 30 0 0 1-30-30z" stroke="#474747" stroke-width="3" fill-opacity="0"/><path d="M1130 530a30 30 0 0 1 30-30h120a30 30 0 0 1 30 30v140a30 30 0 0 1-30 30h-120a30 30 0 0 1-30-30z" fill="none"/><path d="M1142.37 505.73l4-2.46 4.36-1.8 4.58-1.1 13.86-.04m13.86-.04l27.7-.1m13.86-.04l27.7-.08m13.87-.04L1280 500l4.7.37 4.57 1.1 4.35 1.8m10.65 9.1l2.46 4 1.8 4.36 1.1 4.58.04 16.08m.04 16.08l.1 32.15m.04 16.1l.08 32.15m.04 16.07L1310 670l-.37 4.7-1.1 4.57-1.8 4.35m-9.1 10.65l-4 2.46-4.36 1.8-4.58 1.1-13.86.04m-13.86.04l-27.7.1m-13.86.04l-27.7.08m-13.87.04L1160 700l-4.7-.37-4.57-1.1-4.35-1.8m-10.65-9.1l-2.46-4-1.8-4.36-1.1-4.58-.04-16.08m-.04-16.08l-.1-32.15m-.04-16.1l-.08-32.15m-.04-16.07L1130 530l.37-4.7 1.1-4.57 1.8-4.35" stroke="red" stroke-width="3" fill="none"/><use xlink:href="#p" transform="matrix(1,0,0,1,1130,670) translate(20.33950617283952 11.11111111111111)"/><use xlink:href="#q" transform="matrix(1,0,0,1,1130,670) translate(102.9320987654321 11.11111111111111)"/><path d="M1638 385.42l57.98 8.62v5.1c0 7.53-25.98 13.63-58 13.63-32 0-57.98-6.1-57.98-13.64v-5.53z" fill="#8c3123"/><path d="M1638.02 422.13c24.2 0 44.93-3.54 53.58-8.5l2.88-4.78 1.15-4.4v5.45l-19 81c0 5.08-17.3 9.1-38.6 9.1-21.33 0-38.6-4.02-38.6-9.1l-19.02-81v-5.35l4.38 9.27c8.76 4.87 29.27 8.3 53.24 8.3z" fill="#8c3123"/><path d="M1638 380c32 0 58 6.12 58 13.62 0 7.5-26 13.57-58 13.57s-58-6.02-58-13.58c0-7.56 26-13.62 58-13.62z" fill="#e05243"/><path d="M1638 416.6c29.84 0 54.4-5.2 57.62-12.06l-19.02 81c0 5.05-17.3 9.1-38.6 9.1-21.33 0-38.6-4.05-38.6-9.1l-19.03-81c3.23 6.85 27.78 12.07 57.62 12.07z" fill="#e05243"/><use xlink:href="#r" transform="matrix(1,0,0,1,1580,500) translate(8.617283950617278 17.77777777777778)"/><use xlink:href="#s" transform="matrix(1,0,0,1,1580,500) translate(41.95061728395061 17.77777777777778)"/><path d="M1497.6 442.75c-.4-.6-.7-1.22-1-1.83-1.7-3.88-2.6-7.45-3.2-11.73-2.5-14.2-9.1-25.1-19.5-32.45-7.3-5.3-14.7-8.77-23.4-7.44-11.6 1.74-21.4 6.94-28.2 18.98-3.9 7.14-6.6 13.67-8.9 21.83-2.1 7.04-1.9 14.7-4.5 21.53-.6 1.43-1.2 2.55-1.9 3.87-1.8 3.37-4.2 6.43-5.5 10-3.2 8.87-1.4 13.97 5.7 18.36.8.4 1.5.82 2.3 1.22 8.3 3.98 27.8 8.98 39.8 3.47 3-1.12 5.4-2.34 8.1-4.18 9.6-6.12 19.2-12.44 28.8-18.67 4.5-2.75 8.1-5.9 11.5-10.5 3.1-4.3 3-8.26-.1-12.45z" fill="#4b612c"/><path d="M1463.7 394.25c5.34 2.3 9.62 5.26 13.98 9.84 3.02 2.86 11.2 13 13.08 25.6.17 1.9.35 3.82.62 5.64.27.86.62 1.52 1.07 2.2l.97 2.95s1.78 3.43 2.76 5.06c1.25 2.1 1.7 4.2.36 6.3-3.12 4.78-7.12 8.13-12 11.18l.43-6.2-3.2-1.15c-1.25 3.33-.45 5.8 2.58 7.63-2.85 1.8-5.43 3.44-7.92 4.97-7.74 4.97-15.4 10.03-23.14 14.9-5.97 3.73-11.75 5.26-18.42 5.07-7.75-.4-14.33-1.9-21.63-4.97-3.1-1.44-5.7-7.36-4.7-11.08.43-1.82 2.03-2.97 3.55-2.58 5.42.66 10.85 1.43 16.28 2.2 5.96.85 12 2.48 17.97 2.48 6.86 0 13.35-2.5 19.76-5.64-1.95.2-3.9.3-5.78.48-5.42.48-10.76.67-16.1 1.53-6.67 1.04-12.9-.68-19.22-2.6-5.16-1.33-9.25-4.67-12.2-9.93-1.15-2.1-1.86-4.4-.97-6.6.7.77 1.5 2.2 2.05 2.1.62-.1 1.7-1.33 2.04-2.38.8-2.6 1.34-5.26 1.96-7.94.98-5.06 2.05-9.36 3.47-14.33 2.76-8.4 5.78-16.82 10.5-24.08 1.78-2.86 3.47-5.16 5.78-7.55 2.76-2.96 6.4-3.9 10.06-4.4 4.17-.47 8.44-.18 12.8-.28.18 0 .45.3.7.4z" fill="#759c3e"/><path d="M1490.77 429.72c-.88-2.36-1.73-4.26-2.82-6.48-1-1.66-2.05-2.9-3.46-4.07-6.3-5.23-14.9-3.33-19.25 4.16-3.57 5.97-5.2 12.77-6.14 19.85-.28 2.13-.5 4.26-.8 7-1.88-3.85-2.72-7.64-2.76-12.1-.35-8.55.67-16.83 5.15-23.95 3.17-5.1 6.95-9.26 12.5-10.18 1.54-.1 2.9-.05 4.44.18 1.7 1.76 3.7 3.2 5 5.28 3.68 5.42 6.05 10.8 7.78 17.45.17.97.28 1.85.35 2.87z" fill="#b7ca9d"/><path d="M1463.68 394.26c-6.15 2.03-9.72 7.5-12.65 13.8-4.2 9-7.28 18.54-7.1 29.02 0 6.35.97 11.7 3.1 17.47.24.57.38 1.2.68 2.16-2.26.13-4.22-1.07-5.46-3.36-2.33-4.06-3.34-8.32-3.15-13.28.24-13.53 2.43-26.55 9.84-37.48 1.7-2.4 3.27-4.38 5.3-6.48 1.98-2.16 4.32-3.1 6.98-2.92z" fill="#b7ca9d"/><path d="M1493.4 440.5c0 3.35-1.9 5.13-3.76 6.9-9.4 9-20.32 13.72-31.94 16.3-5.16 1.14-10.4 2.16-15.62 2.92-6.3.9-12.24-1.75-18.24-3.62-2.46-.76-4.85-1.7-7.4-2.58 0-.32 0-.6.1-.93 1.14-.13 2.14-.13 3.3 0 4.84.98 9.62 2.47 14.46 3.06 4.7.58 8.78.58 13.47 0 8.78-1.1 16.16-3.13 24.48-6.87 4.84-2.32 8.77-4.63 13.23-7.73 3.4-2.28 6.54-5.15 6.93-10.4zM1481.78 455.7c2.32-1.65 4.6-3.46 7-4.94 1.1-.4 2.1-.57 3.24-.52l.23.68-7.28 5.9z" fill="#b7ca9d"/><use xlink:href="#t" transform="matrix(1,0,0,1,1400,491) translate(4.4135802469135825 17.77777777777778)"/><use xlink:href="#u" transform="matrix(1,0,0,1,1400,491) translate(50.03086419753087 17.77777777777778)"/><path d="M1498.75 443.84h73.23" stroke="#3a414a" fill="none"/><path d="M1498.76 444.34h-.2l-.6-1h.8z" stroke="#3a414a" stroke-width=".05" fill="#3a414a"/><path d="M1586.75 443.84l-14.27 4.64v-9.27z" stroke="#3a414a" fill="#3a414a"/><path d="M595 592.36c0 31.8-25.76 57.63-57.5 57.63S480 624.16 480 592.35c0-31.8 25.76-57.63 57.5-57.63s57.5 25.82 57.5 57.63z" fill="#9d5025"/><path d="M595 587.63c0 31.8-25.76 57.63-57.5 57.63S480 619.44 480 587.63c0-31.8 25.76-57.63 57.5-57.63s57.5 25.82 57.5 57.63z" fill="#f58536"/><path d="M553.06 560.86h6.06v53.5h-6.06v-53.5zM570.1 574.4L586 587.38l-15.87 13.48V574.4z" fill="#fff"/><path d="M513.98 584.6l3.5 2.8-3.85 3.26h59.15v-6.06h-58.8zM513.63 563.9h45.5v-6.06h-45.14l3.45 2.82-3.82 3.25zM517.45 614.15l-3.82 3.26h45.5v-6.06h-45.14l3.45 2.8zM501 577.04l12.68 10.35-12.7 10.8v-21.16zM501 550.3l12.68 10.35-12.7 10.8v-21.16zM501 603.8l12.68 10.36-12.7 10.78V603.8z" fill="#fff"/><use xlink:href="#v" transform="matrix(1,0,0,1,480,650) translate(10.49382716049383 17.77777777777778)"/><use xlink:href="#w" transform="matrix(1,0,0,1,480,650) translate(62.28395061728395 17.77777777777778)"/><use xlink:href="#x" transform="matrix(1,0,0,1,480,650) translate(16.172839506172842 44.44444444444444)"/><path d="M595 242.36c0 31.8-25.76 57.63-57.5 57.63S480 274.16 480 242.35c0-31.8 25.76-57.63 57.5-57.63s57.5 25.82 57.5 57.63z" fill="#9d5025"/><path d="M595 237.63c0 31.8-25.76 57.63-57.5 57.63S480 269.44 480 237.63c0-31.8 25.76-57.63 57.5-57.63s57.5 25.82 57.5 57.63z" fill="#f58536"/><path d="M553.06 210.86h6.06v53.5h-6.06v-53.5zM570.1 224.4L586 237.38l-15.87 13.48V224.4z" fill="#fff"/><path d="M513.98 234.6l3.5 2.8-3.85 3.26h59.15v-6.06h-58.8zM513.63 213.9h45.5v-6.06h-45.14l3.45 2.82-3.82 3.25zM517.45 264.15l-3.82 3.26h45.5v-6.06h-45.14l3.45 2.8zM501 227.04l12.68 10.35-12.7 10.8v-21.16zM501 200.3l12.68 10.35-12.7 10.8v-21.16zM501 253.8l12.68 10.36-12.7 10.78V253.8z" fill="#fff"/><use xlink:href="#v" transform="matrix(1,0,0,1,480,300) translate(10.49382716049383 17.77777777777778)"/><use xlink:href="#w" transform="matrix(1,0,0,1,480,300) translate(62.28395061728395 17.77777777777778)"/><use xlink:href="#x" transform="matrix(1,0,0,1,480,300) translate(16.172839506172842 44.44444444444444)"/><path d="M365 456.55c0 34.47-26.88 62.44-60 62.44-33.12 0-60-27.98-60-62.45 0-34.46 26.88-62.43 60-62.43 33.12 0 60 27.97 60 62.43z" fill="#9d5025"/><path d="M365 451.43c0 34.47-26.88 62.44-60 62.44-33.12 0-60-27.97-60-62.44 0-34.46 26.88-62.43 60-62.43 33.12 0 60 27.97 60 62.43z" fill="#f58536"/><path d="M322.5 401v22.67h-35.02V401h35.02zM349.58 466.6v18.47h-17.74V466.6h17.74zM327.15 466.6v18.47h-17.73V466.6h17.73zM299.84 466.6v18.47H282.1V466.6h17.74zM277.4 466.6v18.47h-17.74V466.6h17.74z" fill="#fff"/><path d="M266.94 450.63h3.2v18.1h-3.2v-18.1z" fill="#fff"/><path d="M266.94 450.63h25.63v3.32h-25.63v-3.32z" fill="#fff"/><path d="M289.38 450.63h3.2v18.1h-3.2v-18.1zM316.7 450.63h3.18v18.1h-3.2v-18.1z" fill="#fff"/><path d="M316.7 450.63h25.62v3.32H316.7v-3.32z" fill="#fff"/><path d="M339.13 450.63h3.2v18.1h-3.2v-18.1zM278.18 437.7h3.2v14.58h-3.2V437.7zM303.4 420.33h3.18v17.64h-3.2v-17.64z" fill="#fff"/><path d="M278.18 436.3h52.98v3.32h-52.98v-3.3z" fill="#fff"/><path d="M327.97 437.7h3.2v14.58h-3.2V437.7z" fill="#fff"/><use xlink:href="#y" transform="matrix(1,0,0,1,245,519) translate(5.771604938271601 17.77777777777778)"/><use xlink:href="#z" transform="matrix(1,0,0,1,245,519) translate(35.308641975308646 44.44444444444444)"/><use xlink:href="#A" transform="matrix(1,0,0,1,245,519) translate(16.234567901234563 71.11111111111111)"/><path d="M920 200h100v100H920V200z" stroke="#fff" stroke-opacity="0" stroke-width="2" fill="#d86613"/><path d="M1000.67 254H994v-2.65h6.67v-32.03h-32.03V226H966v-6.68c0-1.46 1.18-2.65 2.64-2.65h32.03c1.46 0 2.65 1.2 2.65 2.65v32.03c0 1.46-1.2 2.65-2.65 2.65zM971.34 283.33H939.3c-1.45 0-2.65-1.2-2.65-2.65v-32.03c0-1.46 1.2-2.65 2.65-2.65h6.7v2.65h-6.7v32.03h32.04V274H974v6.68c0 1.46-1.2 2.65-2.66 2.65z" stroke="#fff" stroke-opacity="0" stroke-width="2" fill="#fff"/><path d="M991.33 238v-2.68h-4c-.1-1.4-1.24-2.56-2.65-2.64v-4h-2.7v4h-3.96v-4h-2.7v4h-4v-4h-2.64v4h-4v-4H962v4h-4v-4h-2.7v4c-1.4.08-2.56 1.23-2.64 2.64h-4v2.7h4v4h-4v2.65h4v4h-4v2.65h4v4h-4v2.7h4V262h-4v2.68h4c.08 1.4 1.23 2.56 2.64 2.64v4h2.7v-4h4v4h2.65v-4h4v4h2.65v-4h4v4h2.7v-4H982v4h2.68v-4c1.4-.08 2.56-1.23 2.64-2.64h4v-2.7h-4v-3.96h4v-2.7h-4v-4h4v-2.64h-4v-4h4V242h-4v-4zm-6.65 26.42c0 .13-.13.26-.26.26h-28.84c-.13 0-.26-.13-.26-.26v-28.84c0-.13.13-.26.26-.26h28.84c.13 0 .26.13.26.26z" stroke="#fff" stroke-opacity="0" stroke-width="2" fill="#fff"/><use xlink:href="#B" transform="matrix(1,0,0,1,890,309) translate(24.506172839506178 17.77777777777778)"/><use xlink:href="#C" transform="matrix(1,0,0,1,890,309) translate(70.18518518518519 17.77777777777778)"/><path d="M1170 200h100v100h-100V200z" stroke="#fff" stroke-opacity="0" stroke-width="2" fill="#d86613"/><path d="M1250.67 254H1244v-2.65h6.67v-32.03h-32.03V226H1216v-6.68c0-1.46 1.18-2.65 2.64-2.65h32.03c1.46 0 2.65 1.2 2.65 2.65v32.03c0 1.46-1.2 2.65-2.65 2.65zM1221.34 283.33h-32.04c-1.45 0-2.65-1.2-2.65-2.65v-32.03c0-1.46 1.2-2.65 2.65-2.65h6.7v2.65h-6.7v32.03h32.04V274h2.65v6.68c0 1.46-1.2 2.65-2.66 2.65z" stroke="#fff" stroke-opacity="0" stroke-width="2" fill="#fff"/><path d="M1241.33 238v-2.68h-4c-.1-1.4-1.24-2.56-2.65-2.64v-4h-2.7v4h-3.96v-4h-2.7v4h-4v-4h-2.64v4h-4v-4H1212v4h-4v-4h-2.7v4c-1.4.08-2.56 1.23-2.64 2.64h-4v2.7h4v4h-4v2.65h4v4h-4v2.65h4v4h-4v2.7h4V262h-4v2.68h4c.08 1.4 1.23 2.56 2.64 2.64v4h2.7v-4h4v4h2.65v-4h4v4h2.65v-4h4v4h2.7v-4h3.97v4h2.68v-4c1.4-.08 2.56-1.23 2.64-2.64h4v-2.7h-4v-3.96h4v-2.7h-4v-4h4v-2.64h-4v-4h4V242h-4v-4zm-6.65 26.42c0 .13-.13.26-.26.26h-28.84c-.13 0-.26-.13-.26-.26v-28.84c0-.13.13-.26.26-.26h28.84c.13 0 .26.13.26.26z" stroke="#fff" stroke-opacity="0" stroke-width="2" fill="#fff"/><use xlink:href="#B" transform="matrix(1,0,0,1,1140,309) translate(24.506172839506178 17.77777777777778)"/><use xlink:href="#C" transform="matrix(1,0,0,1,1140,309) translate(70.18518518518519 17.77777777777778)"/><path d="M920 520h100v100H920V520z" stroke="#fff" stroke-opacity="0" stroke-width="2" fill="#d86613"/><path d="M1000.67 574H994v-2.65h6.67v-32.03h-32.03V546H966v-6.68c0-1.46 1.18-2.65 2.64-2.65h32.03c1.46 0 2.65 1.2 2.65 2.65v32.03c0 1.46-1.2 2.65-2.65 2.65zM971.34 603.33H939.3c-1.45 0-2.65-1.2-2.65-2.65v-32.03c0-1.46 1.2-2.65 2.65-2.65h6.7v2.65h-6.7v32.03h32.04V594H974v6.68c0 1.46-1.2 2.65-2.66 2.65z" stroke="#fff" stroke-opacity="0" stroke-width="2" fill="#fff"/><path d="M991.33 558v-2.68h-4c-.1-1.4-1.24-2.56-2.65-2.64v-4h-2.7v4h-3.96v-4h-2.7v4h-4v-4h-2.64v4h-4v-4H962v4h-4v-4h-2.7v4c-1.4.08-2.56 1.23-2.64 2.64h-4v2.7h4v4h-4v2.65h4v4h-4v2.65h4v4h-4v2.7h4V582h-4v2.68h4c.08 1.4 1.23 2.56 2.64 2.64v4h2.7v-4h4v4h2.65v-4h4v4h2.65v-4h4v4h2.7v-4H982v4h2.68v-4c1.4-.08 2.56-1.23 2.64-2.64h4v-2.7h-4v-3.96h4v-2.7h-4v-4h4v-2.64h-4v-4h4V562h-4v-4zm-6.65 26.42c0 .13-.13.26-.26.26h-28.84c-.13 0-.26-.13-.26-.26v-28.84c0-.13.13-.26.26-.26h28.84c.13 0 .26.13.26.26z" stroke="#fff" stroke-opacity="0" stroke-width="2" fill="#fff"/><use xlink:href="#B" transform="matrix(1,0,0,1,890,629) translate(24.506172839506178 17.77777777777778)"/><use xlink:href="#C" transform="matrix(1,0,0,1,890,629) translate(70.18518518518519 17.77777777777778)"/><path d="M1170 511h100v100h-100V511z" stroke="#fff" stroke-opacity="0" stroke-width="2" fill="#d86613"/><path d="M1250.67 565H1244v-2.65h6.67v-32.03h-32.03V537H1216v-6.68c0-1.46 1.18-2.65 2.64-2.65h32.03c1.46 0 2.65 1.2 2.65 2.65v32.03c0 1.46-1.2 2.65-2.65 2.65zM1221.34 594.33h-32.04c-1.45 0-2.65-1.2-2.65-2.65v-32.03c0-1.46 1.2-2.65 2.65-2.65h6.7v2.65h-6.7v32.03h32.04V585h2.65v6.68c0 1.46-1.2 2.65-2.66 2.65z" stroke="#fff" stroke-opacity="0" stroke-width="2" fill="#fff"/><path d="M1241.33 549v-2.68h-4c-.1-1.4-1.24-2.56-2.65-2.64v-4h-2.7v4h-3.96v-4h-2.7v4h-4v-4h-2.64v4h-4v-4H1212v4h-4v-4h-2.7v4c-1.4.08-2.56 1.23-2.64 2.64h-4v2.7h4v4h-4v2.65h4v4h-4v2.65h4v4h-4v2.7h4V573h-4v2.68h4c.08 1.4 1.23 2.56 2.64 2.64v4h2.7v-4h4v4h2.65v-4h4v4h2.65v-4h4v4h2.7v-4h3.97v4h2.68v-4c1.4-.08 2.56-1.23 2.64-2.64h4v-2.7h-4v-3.96h4v-2.7h-4v-4h4v-2.64h-4v-4h4V553h-4v-4zm-6.65 26.42c0 .13-.13.26-.26.26h-28.84c-.13 0-.26-.13-.26-.26v-28.84c0-.13.13-.26.26-.26h28.84c.13 0 .26.13.26.26z" stroke="#fff" stroke-opacity="0" stroke-width="2" fill="#fff"/><g><use xlink:href="#B" transform="matrix(1,0,0,1,1140,620) translate(24.506172839506178 17.77777777777778)"/><use xlink:href="#C" transform="matrix(1,0,0,1,1140,620) translate(70.18518518518519 17.77777777777778)"/></g><path d="M220 456.43c0 26.05-21.28 47.2-47.5 47.2s-47.5-21.15-47.5-47.2c0-26.05 21.28-47.18 47.5-47.18s47.5 21.13 47.5 47.18z" fill="#9d5025"/><path d="M125 452.55h95v3.88h-95v-3.88z" fill="#9d5025"/><path d="M220 452.56c0 26.05-21.28 47.18-47.5 47.18S125 478.6 125 452.56s21.28-47.19 47.5-47.19 47.5 21.14 47.5 47.2z" fill="#f58536"/><path d="M136.7 457.25v-1.23c.34-5.72 3.56-10.48 8.8-12.98.5-10.53 9.5-18.66 20.16-18.12 6.66.32 12.24 3.68 15.6 9.4 5.44-2.27 11.67.23 13.96 5.6.35.76.57 1.4.7 2.16 7.17 1.4 12.32 8.22 12.32 13.94v1.14c0 7-7.3 13.12-15.6 13.12H152.2c-8.22.04-15.5-6.08-15.5-13.03z" fill="#fff"/><path d="M182.23 439.34l-3.04 2.08-1.55-3.33c-2.36-5.2-7.18-8.38-12.94-8.42h-.05c-7.86 0-14.3 6.37-14.3 14.24v2.65l-2.22.64c-3.78 1.5-6.25 4.8-6.56 8.85v1.14c0 3.82 4.7 8.25 10.7 8.25h40.48c6.06 0 10.7-4.43 10.7-8.26v-1.15c0-3.87-4.33-8.9-9.34-9.3l-2.72-.22-.18-2.68c0-1.15-.37-2.08-1-3-1.8-2.62-5.38-3.26-7.97-1.47z" fill="#f58536"/><g><use xlink:href="#D" transform="matrix(1,0,0,1,125,503.625) translate(9.876543209876544 17.77777777777778)"/><use xlink:href="#x" transform="matrix(1,0,0,1,125,503.625) translate(6.172839506172842 44.44444444444444)"/></g><path d="M42.44 461.78H21.7c-.95 0-1.7-.76-1.7-1.7v-2.54c0-9.48 6.23-17.44 15.5-19.67.4-.1.8-.04 1.2.17 2.73 1.46 5.68 1.46 8.4 0 .4-.2.8-.26 1.22-.17 2.43.6 4.43 1.47 6.5 2.85l-1.9 2.83c-1.55-1-3-1.68-4.8-2.15-3.45 1.58-7 1.58-10.43 0-7.4 2.06-12.3 8.5-12.3 16.14v.84h19.04z" stroke="#fff" stroke-opacity="0" fill="#232f3e"/><path d="M40.88 442.46c-6.17 0-11.17-5-11.17-11.14 0-6.16 5-11.15 11.18-11.15 6.16-.07 11.2 4.88 11.26 11 .04 4.27-2.1 7.9-5.86 9.9-1.72.97-3.4 1.4-5.4 1.4zm0-18.9c-4.3 0-7.83 3.45-7.85 7.76 0 2.92 1.48 5.4 4.06 6.8 2.43 1.3 5.12 1.3 7.57 0 2.6-1.4 4.1-3.95 4.06-6.9-.05-4.27-3.57-7.68-7.85-7.64zM98.32 461.78H77.57v-3.4H96.6v-.83c0-7.67-4.9-14.1-12.25-16.17-3.45 1.6-7 1.6-10.46 0-1.82.5-3.3 1.2-4.84 2.28l-1.94-2.8c2.07-1.44 4.08-2.35 6.5-2.97.44-.1.86-.06 1.26.16 2.7 1.46 5.7 1.46 8.42 0 .4-.22.8-.27 1.2-.17 9.25 2.22 15.5 10.16 15.5 19.65v2.53c0 .94-.76 1.68-1.68 1.7z" stroke="#fff" stroke-opacity="0" fill="#232f3e"/><path d="M79.08 442.46c-6.2 0-11.23-5.05-11.23-11.25S72.9 420 79.13 420c6.2 0 11.23 5.05 11.23 11.25 0 4.23-2.14 7.82-5.85 9.84-1.75.94-3.44 1.36-5.42 1.36zm0-18.9c-4.3 0-7.8 3.45-7.83 7.76-.02 2.92 1.46 5.42 4.05 6.8 2.43 1.3 5.13 1.3 7.6 0 2.62-1.4 4.13-3.97 4.08-6.96-.1-4.26-3.62-7.68-7.9-7.6zM87.2 500H32.73c-.92 0-1.67-.75-1.67-1.7v-3.6c-.06-13.1 8.6-24.1 21.32-27.18.46-.13.86-.06 1.27.13 4.04 2.18 8.5 2.18 12.6 0 .34-.2.75-.26 1.2-.13 12.78 3.06 21.45 14.06 21.4 27.18v3.6c0 .95-.76 1.7-1.68 1.7zm-52.72-3.38h50.97v-1.92c0-11.27-7.28-20.74-18.2-23.66-4.8 2.3-9.83 2.3-14.62 0-10.93 2.92-18.15 12.4-18.15 23.66z" stroke="#fff" stroke-opacity="0" fill="#232f3e"/><path d="M60.02 472.64c-2.7 0-5-.58-7.4-1.86-7.4-4.07-10.13-13.34-6.1-20.77 4.1-7.4 13.38-10.12 20.83-6.08 7.42 4.07 10.15 13.34 6.1 20.77-1.47 2.68-3.4 4.6-6.1 6.08-2.36 1.28-4.66 1.86-7.33 1.86zm0-26.76c-4.44-.06-8.28 2.17-10.42 6.1-3.07 5.64-.98 12.74 4.7 15.83 3.67 1.97 7.7 1.97 11.4 0 3.95-2.13 6.22-5.95 6.16-10.42-.1-6.42-5.4-11.6-11.84-11.5z" stroke="#fff" stroke-opacity="0" fill="#232f3e"/><path d="M98.78 461.78H59.06c-.68 0-1.23-.54-1.23-1.23v-2.64c-.04-9.53 6.3-17.56 15.56-19.8.33-.1.63-.06.92.08 2.95 1.6 6.2 1.6 9.2 0 .25-.14.54-.2.88-.1 9.32 2.24 15.64 10.27 15.6 19.83v2.65c0 .7-.55 1.23-1.22 1.23zm-38.46-2.47h37.2v-1.4c0-8.2-5.32-15.1-13.3-17.25-3.5 1.7-7.16 1.7-10.66 0-7.97 2.14-13.24 9.05-13.24 17.26z" stroke="#fff" stroke-opacity="0" stroke-width=".73" fill="#fff" fill-opacity="0"/><path d="M60.94 461.78H21.22c-.67 0-1.22-.54-1.22-1.23v-2.64c-.04-9.53 6.28-17.56 15.56-19.8.34-.1.63-.06.93.08 2.94 1.6 6.2 1.6 9.18 0 .25-.14.55-.2.88-.1 9.32 2.24 15.65 10.27 15.6 19.83v2.65c0 .7-.54 1.23-1.22 1.23zM22.5 459.3h37.18v-1.4c0-8.2-5.3-15.1-13.28-17.25-3.5 1.7-7.17 1.7-10.67 0-7.97 2.14-13.24 9.05-13.24 17.26z" stroke="#fff" stroke-opacity="0" stroke-width=".73" fill="#fff" fill-opacity="0"/><g><use xlink:href="#E" transform="matrix(1,0,0,1,-10,509) translate(41.04938271604939 17.77777777777778)"/></g><path d="M1320.8 600.06H1444a6 6 0 0 0 6-6v-89.4" stroke="#3a414a" fill="none"/><path d="M1320.8 600.56h-.5v-1h.5z" stroke="#3a414a" stroke-width=".05" fill="#3a414a"/><path d="M1450 489.9l4.64 14.25h-9.28z" stroke="#3a414a" fill="#3a414a"/><path d="M1320.8 280.06H1444a6 6 0 0 1 6 6v86.98" stroke="#3a414a" fill="none"/><path d="M1320.8 280.56h-.5v-1h.5z" stroke="#3a414a" stroke-width=".05" fill="#3a414a"/><path d="M1450 387.8l-4.64-14.26h9.28z" stroke="#3a414a" fill="#3a414a"/><path d="M1440 920h240v60h-240z" fill="none"/><g><use xlink:href="#F" transform="matrix(1,0,0,1,1445,925) translate(60.441026475694464 32.700358072916664)"/><use xlink:href="#G" transform="matrix(1,0,0,1,1445,925) translate(117.61930338541667 32.700358072916664)"/></g><path d="M1440 960h240v60h-240z" fill="none"/><g><use xlink:href="#H" transform="matrix(1,0,0,1,1445,965) translate(19.790039062500014 32.06396484375)"/><use xlink:href="#I" transform="matrix(1,0,0,1,1445,965) translate(53.87532552083334 32.06396484375)"/><use xlink:href="#J" transform="matrix(1,0,0,1,1445,965) translate(77.87955729166667 32.06396484375)"/><use xlink:href="#K" transform="matrix(1,0,0,1,1445,965) translate(133.19889322916666 32.06396484375)"/><use xlink:href="#L" transform="matrix(1,0,0,1,1445,965) translate(183.62825520833331 32.06396484375)"/></g><path d="M440 12.6h700v60H440z" fill="none"/><g><use xlink:href="#M" transform="matrix(1,0,0,1,444.99999999999994,17.599999999999987) translate(17.587782118055713 33.33675130208333)"/><use xlink:href="#N" transform="matrix(1,0,0,1,444.99999999999994,17.599999999999987) translate(72.55490451388903 33.33675130208333)"/><use xlink:href="#O" transform="matrix(1,0,0,1,444.99999999999994,17.599999999999987) translate(281.5209418402778 33.33675130208333)"/><use xlink:href="#P" transform="matrix(1,0,0,1,444.99999999999994,17.599999999999987) translate(317.88140190972223 33.33675130208333)"/><use xlink:href="#Q" transform="matrix(1,0,0,1,444.99999999999994,17.599999999999987) translate(412.5635850694444 33.33675130208333)"/><use xlink:href="#R" transform="matrix(1,0,0,1,444.99999999999994,17.599999999999987) translate(434.75227864583326 33.33675130208333)"/><use xlink:href="#S" transform="matrix(1,0,0,1,444.99999999999994,17.599999999999987) translate(523.9619140624999 33.33675130208333)"/></g><defs><path fill="#3a414a" d="M205 0l-28-72H64L36 0H1l101-248h38L239 0h-34zm-38-99l-47-123c-12 45-31 82-46 123h93" id="T"/><path fill="#3a414a" d="M266 0h-40l-56-210L115 0H75L2-248h35L96-30l15-64 43-154h32l59 218 59-218h35" id="U"/><path fill="#3a414a" d="M185-189c-5-48-123-54-124 2 14 75 158 14 163 119 3 78-121 87-175 55-17-10-28-26-33-46l33-7c5 56 141 63 141-1 0-78-155-14-162-118-5-82 145-84 179-34 5 7 8 16 11 25" id="V"/><g id="a"><use transform="matrix(0.06172839506172839,0,0,0.06172839506172839,0,0)" xlink:href="#T"/><use transform="matrix(0.06172839506172839,0,0,0.06172839506172839,14.012345679012345,0)" xlink:href="#U"/><use transform="matrix(0.06172839506172839,0,0,0.06172839506172839,34.938271604938265,0)" xlink:href="#V"/></g><path fill="#3a414a" d="M96-169c-40 0-48 33-48 73s9 75 48 75c24 0 41-14 43-38l32 2c-6 37-31 61-74 61-59 0-76-41-82-99-10-93 101-131 147-64 4 7 5 14 7 22l-32 3c-4-21-16-35-41-35" id="W"/><path fill="#3a414a" d="M24 0v-261h32V0H24" id="X"/><path fill="#3a414a" d="M100-194c62-1 85 37 85 99 1 63-27 99-86 99S16-35 15-95c0-66 28-99 85-99zM99-20c44 1 53-31 53-75 0-43-8-75-51-75s-53 32-53 75 10 74 51 75" id="Y"/><path fill="#3a414a" d="M84 4C-5 8 30-112 23-190h32v120c0 31 7 50 39 49 72-2 45-101 50-169h31l1 190h-30c-1-10 1-25-2-33-11 22-28 36-60 37" id="Z"/><path fill="#3a414a" d="M85-194c31 0 48 13 60 33l-1-100h32l1 261h-30c-2-10 0-23-3-31C134-8 116 4 85 4 32 4 16-35 15-94c0-66 23-100 70-100zm9 24c-40 0-46 34-46 75 0 40 6 74 45 74 42 0 51-32 51-76 0-42-9-74-50-73" id="aa"/><g id="b"><use transform="matrix(0.06172839506172839,0,0,0.06172839506172839,0,0)" xlink:href="#W"/><use transform="matrix(0.06172839506172839,0,0,0.06172839506172839,11.11111111111111,0)" xlink:href="#X"/><use transform="matrix(0.06172839506172839,0,0,0.06172839506172839,15.987654320987653,0)" xlink:href="#Y"/><use transform="matrix(0.06172839506172839,0,0,0.06172839506172839,28.333333333333332,0)" xlink:href="#Z"/><use transform="matrix(0.06172839506172839,0,0,0.06172839506172839,40.67901234567901,0)" xlink:href="#aa"/></g><path fill="#3a414a" d="M108 0H70L1-190h34L89-25l56-165h34" id="ab"/><path fill="#3a414a" d="M24-231v-30h32v30H24zM24 0v-190h32V0H24" id="ac"/><path fill="#3a414a" d="M114-163C36-179 61-72 57 0H25l-1-190h30c1 12-1 29 2 39 6-27 23-49 58-41v29" id="ad"/><path fill="#3a414a" d="M59-47c-2 24 18 29 38 22v24C64 9 27 4 27-40v-127H5v-23h24l9-43h21v43h35v23H59v120" id="ae"/><path fill="#3a414a" d="M141-36C126-15 110 5 73 4 37 3 15-17 15-53c-1-64 63-63 125-63 3-35-9-54-41-54-24 1-41 7-42 31l-33-3c5-37 33-52 76-52 45 0 72 20 72 64v82c-1 20 7 32 28 27v20c-31 9-61-2-59-35zM48-53c0 20 12 33 32 33 41-3 63-29 60-74-43 2-92-5-92 41" id="af"/><g id="c"><use transform="matrix(0.06172839506172839,0,0,0.06172839506172839,0,0)" xlink:href="#ab"/><use transform="matrix(0.06172839506172839,0,0,0.06172839506172839,11.11111111111111,0)" xlink:href="#ac"/><use transform="matrix(0.06172839506172839,0,0,0.06172839506172839,15.987654320987653,0)" xlink:href="#ad"/><use transform="matrix(0.06172839506172839,0,0,0.06172839506172839,23.333333333333332,0)" xlink:href="#ae"/><use transform="matrix(0.06172839506172839,0,0,0.06172839506172839,29.50617283950617,0)" xlink:href="#Z"/><use transform="matrix(0.06172839506172839,0,0,0.06172839506172839,41.85185185185185,0)" xlink:href="#af"/><use transform="matrix(0.06172839506172839,0,0,0.06172839506172839,54.197530864197525,0)" xlink:href="#X"/></g><path fill="#3a414a" d="M115-194c55 1 70 41 70 98S169 2 115 4C84 4 66-9 55-30l1 105H24l-1-265h31l2 30c10-21 28-34 59-34zm-8 174c40 0 45-34 45-75s-6-73-45-74c-42 0-51 32-51 76 0 43 10 73 51 73" id="ag"/><path fill="#3a414a" d="M100-194c63 0 86 42 84 106H49c0 40 14 67 53 68 26 1 43-12 49-29l28 8c-11 28-37 45-77 45C44 4 14-33 15-96c1-61 26-98 85-98zm52 81c6-60-76-77-97-28-3 7-6 17-6 28h103" id="ah"/><g id="d"><use transform="matrix(0.06172839506172839,0,0,0.06172839506172839,0,0)" xlink:href="#ag"/><use transform="matrix(0.06172839506172839,0,0,0.06172839506172839,12.345679012345679,0)" xlink:href="#ad"/><use transform="matrix(0.06172839506172839,0,0,0.06172839506172839,19.691358024691358,0)" xlink:href="#ac"/><use transform="matrix(0.06172839506172839,0,0,0.06172839506172839,24.5679012345679,0)" xlink:href="#ab"/><use transform="matrix(0.06172839506172839,0,0,0.06172839506172839,35.67901234567901,0)" xlink:href="#af"/><use transform="matrix(0.06172839506172839,0,0,0.06172839506172839,48.02469135802469,0)" xlink:href="#ae"/><use transform="matrix(0.06172839506172839,0,0,0.06172839506172839,54.19753086419753,0)" xlink:href="#ah"/></g><path fill="#3a414a" d="M115-194c53 0 69 39 70 98 0 66-23 100-70 100C84 3 66-7 56-30L54 0H23l1-261h32v101c10-23 28-34 59-34zm-8 174c40 0 45-34 45-75 0-40-5-75-45-74-42 0-51 32-51 76 0 43 10 73 51 73" id="ai"/><path fill="#3a414a" d="M179-190L93 31C79 59 56 82 12 73V49c39 6 53-20 64-50L1-190h34L92-34l54-156h33" id="aj"/><g id="e"><use transform="matrix(0.06172839506172839,0,0,0.06172839506172839,0,0)" xlink:href="#T"/><use transform="matrix(0.06172839506172839,0,0,0.06172839506172839,14.382716049382715,0)" xlink:href="#ab"/><use transform="matrix(0.06172839506172839,0,0,0.06172839506172839,25.493827160493826,0)" xlink:href="#af"/><use transform="matrix(0.06172839506172839,0,0,0.06172839506172839,37.839506172839506,0)" xlink:href="#ac"/><use transform="matrix(0.06172839506172839,0,0,0.06172839506172839,42.71604938271605,0)" xlink:href="#X"/><use transform="matrix(0.06172839506172839,0,0,0.06172839506172839,47.592592592592595,0)" xlink:href="#af"/><use transform="matrix(0.06172839506172839,0,0,0.06172839506172839,59.93827160493827,0)" xlink:href="#ai"/><use transform="matrix(0.06172839506172839,0,0,0.06172839506172839,72.28395061728395,0)" xlink:href="#ac"/><use transform="matrix(0.06172839506172839,0,0,0.06172839506172839,77.1604938271605,0)" xlink:href="#X"/><use transform="matrix(0.06172839506172839,0,0,0.06172839506172839,82.03703703703704,0)" xlink:href="#ac"/><use transform="matrix(0.06172839506172839,0,0,0.06172839506172839,86.91358024691358,0)" xlink:href="#ae"/><use transform="matrix(0.06172839506172839,0,0,0.06172839506172839,93.08641975308642,0)" xlink:href="#aj"/></g><path fill="#3a414a" d="M209 0H11v-25l151-195H24v-28h176v25L50-27h159V0" id="ak"/><path fill="#3a414a" d="M117-194c89-4 53 116 60 194h-32v-121c0-31-8-49-39-48C34-167 62-67 57 0H25l-1-190h30c1 10-1 24 2 32 11-22 29-35 61-36" id="al"/><g id="f"><use transform="matrix(0.06172839506172839,0,0,0.06172839506172839,0,0)" xlink:href="#ak"/><use transform="matrix(0.06172839506172839,0,0,0.06172839506172839,13.518518518518517,0)" xlink:href="#Y"/><use transform="matrix(0.06172839506172839,0,0,0.06172839506172839,25.864197530864196,0)" xlink:href="#al"/><use transform="matrix(0.06172839506172839,0,0,0.06172839506172839,38.20987654320987,0)" xlink:href="#ah"/></g><path fill="#3a414a" d="M27 0v-27h64v-190l-56 39v-29l58-41h29v221h61V0H27" id="am"/><use transform="matrix(0.06172839506172839,0,0,0.06172839506172839,0,0)" xlink:href="#am" id="g"/><g id="h"><use transform="matrix(0.06172839506172839,0,0,0.06172839506172839,0,0)" xlink:href="#T"/><use transform="matrix(0.06172839506172839,0,0,0.06172839506172839,14.382716049382715,0)" xlink:href="#ab"/><use transform="matrix(0.06172839506172839,0,0,0.06172839506172839,25.493827160493826,0)" xlink:href="#af"/><use transform="matrix(0.06172839506172839,0,0,0.06172839506172839,37.839506172839506,0)" xlink:href="#ac"/><use transform="matrix(0.06172839506172839,0,0,0.06172839506172839,42.71604938271605,0)" xlink:href="#X"/><use transform="matrix(0.06172839506172839,0,0,0.06172839506172839,47.592592592592595,0)" xlink:href="#af"/><use transform="matrix(0.06172839506172839,0,0,0.06172839506172839,59.93827160493827,0)" xlink:href="#ai"/><use transform="matrix(0.06172839506172839,0,0,0.06172839506172839,72.28395061728395,0)" xlink:href="#ac"/><use transform="matrix(0.06172839506172839,0,0,0.06172839506172839,77.1604938271605,0)" xlink:href="#X"/><use transform="matrix(0.06172839506172839,0,0,0.06172839506172839,82.03703703703704,0)" xlink:href="#ac"/><use transform="matrix(0.06172839506172839,0,0,0.06172839506172839,86.91358024691358,0)" xlink:href="#ae"/><use transform="matrix(0.06172839506172839,0,0,0.06172839506172839,93.08641975308642,0)" xlink:href="#aj"/></g><path fill="#3a414a" d="M101-251c82-7 93 87 43 132L82-64C71-53 59-42 53-27h129V0H18c2-99 128-94 128-182 0-28-16-43-45-43s-46 15-49 41l-32-3c6-41 34-60 81-64" id="an"/><use transform="matrix(0.06172839506172839,0,0,0.06172839506172839,0,0)" xlink:href="#an" id="i"/><path fill="#3a414a" d="M30-248c87 1 191-15 191 75 0 78-77 80-158 76V0H30v-248zm33 125c57 0 124 11 124-50 0-59-68-47-124-48v98" id="ao"/><g id="j"><use transform="matrix(0.06172839506172839,0,0,0.06172839506172839,0,0)" xlink:href="#ao"/><use transform="matrix(0.06172839506172839,0,0,0.06172839506172839,14.814814814814813,0)" xlink:href="#ad"/><use transform="matrix(0.06172839506172839,0,0,0.06172839506172839,22.160493827160494,0)" xlink:href="#ac"/><use transform="matrix(0.06172839506172839,0,0,0.06172839506172839,27.037037037037038,0)" xlink:href="#ab"/><use transform="matrix(0.06172839506172839,0,0,0.06172839506172839,38.14814814814815,0)" xlink:href="#af"/><use transform="matrix(0.06172839506172839,0,0,0.06172839506172839,50.49382716049383,0)" xlink:href="#ae"/><use transform="matrix(0.06172839506172839,0,0,0.06172839506172839,56.66666666666667,0)" xlink:href="#ah"/></g><g id="k"><use transform="matrix(0.06172839506172839,0,0,0.06172839506172839,0,0)" xlink:href="#V"/><use transform="matrix(0.06172839506172839,0,0,0.06172839506172839,14.814814814814813,0)" xlink:href="#Z"/><use transform="matrix(0.06172839506172839,0,0,0.06172839506172839,27.160493827160494,0)" xlink:href="#ai"/><use transform="matrix(0.06172839506172839,0,0,0.06172839506172839,39.50617283950617,0)" xlink:href="#al"/><use transform="matrix(0.06172839506172839,0,0,0.06172839506172839,51.85185185185185,0)" xlink:href="#ah"/><use transform="matrix(0.06172839506172839,0,0,0.06172839506172839,64.19753086419753,0)" xlink:href="#ae"/></g><path fill="#3a414a" d="M135-143c-3-34-86-38-87 0 15 53 115 12 119 90S17 21 10-45l28-5c4 36 97 45 98 0-10-56-113-15-118-90-4-57 82-63 122-42 12 7 21 19 24 35" id="ap"/><g id="l"><use transform="matrix(0.06172839506172839,0,0,0.06172839506172839,0,0)" xlink:href="#ap"/><use transform="matrix(0.06172839506172839,0,0,0.06172839506172839,11.11111111111111,0)" xlink:href="#Z"/><use transform="matrix(0.06172839506172839,0,0,0.06172839506172839,23.45679012345679,0)" xlink:href="#ai"/><use transform="matrix(0.06172839506172839,0,0,0.06172839506172839,35.80246913580247,0)" xlink:href="#al"/><use transform="matrix(0.06172839506172839,0,0,0.06172839506172839,48.148148148148145,0)" xlink:href="#ah"/><use transform="matrix(0.06172839506172839,0,0,0.06172839506172839,60.49382716049382,0)" xlink:href="#ae"/></g><path fill="#d86613" d="M205 0l-28-72H64L36 0H1l101-248h38L239 0h-34zm-38-99l-47-123c-12 45-31 82-46 123h93" id="aq"/><path fill="#d86613" d="M84 4C-5 8 30-112 23-190h32v120c0 31 7 50 39 49 72-2 45-101 50-169h31l1 190h-30c-1-10 1-25-2-33-11 22-28 36-60 37" id="ar"/><path fill="#d86613" d="M59-47c-2 24 18 29 38 22v24C64 9 27 4 27-40v-127H5v-23h24l9-43h21v43h35v23H59v120" id="as"/><path fill="#d86613" d="M100-194c62-1 85 37 85 99 1 63-27 99-86 99S16-35 15-95c0-66 28-99 85-99zM99-20c44 1 53-31 53-75 0-43-8-75-51-75s-53 32-53 75 10 74 51 75" id="at"/><g id="m"><use transform="matrix(0.05,0,0,0.05,0,0)" xlink:href="#aq"/><use transform="matrix(0.05,0,0,0.05,12,0)" xlink:href="#ar"/><use transform="matrix(0.05,0,0,0.05,22,0)" xlink:href="#as"/><use transform="matrix(0.05,0,0,0.05,27,0)" xlink:href="#at"/></g><path fill="#d86613" d="M185-189c-5-48-123-54-124 2 14 75 158 14 163 119 3 78-121 87-175 55-17-10-28-26-33-46l33-7c5 56 141 63 141-1 0-78-155-14-162-118-5-82 145-84 179-34 5 7 8 16 11 25" id="au"/><path fill="#d86613" d="M96-169c-40 0-48 33-48 73s9 75 48 75c24 0 41-14 43-38l32 2c-6 37-31 61-74 61-59 0-76-41-82-99-10-93 101-131 147-64 4 7 5 14 7 22l-32 3c-4-21-16-35-41-35" id="av"/><path fill="#d86613" d="M141-36C126-15 110 5 73 4 37 3 15-17 15-53c-1-64 63-63 125-63 3-35-9-54-41-54-24 1-41 7-42 31l-33-3c5-37 33-52 76-52 45 0 72 20 72 64v82c-1 20 7 32 28 27v20c-31 9-61-2-59-35zM48-53c0 20 12 33 32 33 41-3 63-29 60-74-43 2-92-5-92 41" id="aw"/><path fill="#d86613" d="M24 0v-261h32V0H24" id="ax"/><path fill="#d86613" d="M24-231v-30h32v30H24zM24 0v-190h32V0H24" id="ay"/><path fill="#d86613" d="M117-194c89-4 53 116 60 194h-32v-121c0-31-8-49-39-48C34-167 62-67 57 0H25l-1-190h30c1 10-1 24 2 32 11-22 29-35 61-36" id="az"/><path fill="#d86613" d="M177-190C167-65 218 103 67 71c-23-6-38-20-44-43l32-5c15 47 100 32 89-28v-30C133-14 115 1 83 1 29 1 15-40 15-95c0-56 16-97 71-98 29-1 48 16 59 35 1-10 0-23 2-32h30zM94-22c36 0 50-32 50-73 0-42-14-75-50-75-39 0-46 34-46 75s6 73 46 73" id="aA"/><g id="n"><use transform="matrix(0.05,0,0,0.05,0,0)" xlink:href="#au"/><use transform="matrix(0.05,0,0,0.05,12,0)" xlink:href="#av"/><use transform="matrix(0.05,0,0,0.05,21,0)" xlink:href="#aw"/><use transform="matrix(0.05,0,0,0.05,31,0)" xlink:href="#ax"/><use transform="matrix(0.05,0,0,0.05,34.95,0)" xlink:href="#ay"/><use transform="matrix(0.05,0,0,0.05,38.900000000000006,0)" xlink:href="#az"/><use transform="matrix(0.05,0,0,0.05,48.900000000000006,0)" xlink:href="#aA"/></g><g id="o"><use transform="matrix(0.06172839506172839,0,0,0.06172839506172839,0,0)" xlink:href="#ao"/><use transform="matrix(0.06172839506172839,0,0,0.06172839506172839,14.814814814814813,0)" xlink:href="#Z"/><use transform="matrix(0.06172839506172839,0,0,0.06172839506172839,27.160493827160494,0)" xlink:href="#ai"/><use transform="matrix(0.06172839506172839,0,0,0.06172839506172839,39.50617283950617,0)" xlink:href="#X"/><use transform="matrix(0.06172839506172839,0,0,0.06172839506172839,44.382716049382715,0)" xlink:href="#ac"/><use transform="matrix(0.06172839506172839,0,0,0.06172839506172839,49.25925925925926,0)" xlink:href="#W"/></g><g id="p"><use transform="matrix(0.06172839506172839,0,0,0.06172839506172839,0,0)" xlink:href="#ap"/><use transform="matrix(0.06172839506172839,0,0,0.06172839506172839,11.11111111111111,0)" xlink:href="#ah"/><use transform="matrix(0.06172839506172839,0,0,0.06172839506172839,23.45679012345679,0)" xlink:href="#W"/><use transform="matrix(0.06172839506172839,0,0,0.06172839506172839,34.5679012345679,0)" xlink:href="#Z"/><use transform="matrix(0.06172839506172839,0,0,0.06172839506172839,46.913580246913575,0)" xlink:href="#ad"/><use transform="matrix(0.06172839506172839,0,0,0.06172839506172839,54.25925925925925,0)" xlink:href="#ac"/><use transform="matrix(0.06172839506172839,0,0,0.06172839506172839,59.1358024691358,0)" xlink:href="#ae"/><use transform="matrix(0.06172839506172839,0,0,0.06172839506172839,65.30864197530863,0)" xlink:href="#aj"/></g><path fill="#3a414a" d="M177-190C167-65 218 103 67 71c-23-6-38-20-44-43l32-5c15 47 100 32 89-28v-30C133-14 115 1 83 1 29 1 15-40 15-95c0-56 16-97 71-98 29-1 48 16 59 35 1-10 0-23 2-32h30zM94-22c36 0 50-32 50-73 0-42-14-75-50-75-39 0-46 34-46 75s6 73 46 73" id="aB"/><g id="q"><use transform="matrix(0.06172839506172839,0,0,0.06172839506172839,0,0)" xlink:href="#aB"/><use transform="matrix(0.06172839506172839,0,0,0.06172839506172839,12.345679012345679,0)" xlink:href="#ad"/><use transform="matrix(0.06172839506172839,0,0,0.06172839506172839,19.691358024691358,0)" xlink:href="#Y"/><use transform="matrix(0.06172839506172839,0,0,0.06172839506172839,32.03703703703704,0)" xlink:href="#Z"/><use transform="matrix(0.06172839506172839,0,0,0.06172839506172839,44.382716049382715,0)" xlink:href="#ag"/></g><path fill="#3a414a" d="M126-127c33 6 58 20 58 59 0 88-139 92-164 29-3-8-5-16-6-25l32-3c6 27 21 44 54 44 32 0 52-15 52-46 0-38-36-46-79-43v-28c39 1 72-4 72-42 0-27-17-43-46-43-28 0-47 15-49 41l-32-3c6-42 35-63 81-64 48-1 79 21 79 65 0 36-21 52-52 59" id="aC"/><g id="r"><use transform="matrix(0.06172839506172839,0,0,0.06172839506172839,0,0)" xlink:href="#V"/><use transform="matrix(0.06172839506172839,0,0,0.06172839506172839,14.814814814814813,0)" xlink:href="#aC"/></g><path fill="#3a414a" d="M143 0L79-87 56-68V0H24v-261h32v163l83-92h37l-77 82L181 0h-38" id="aD"/><g id="s"><use transform="matrix(0.06172839506172839,0,0,0.06172839506172839,0,0)" xlink:href="#ai"/><use transform="matrix(0.06172839506172839,0,0,0.06172839506172839,12.345679012345679,0)" xlink:href="#Z"/><use transform="matrix(0.06172839506172839,0,0,0.06172839506172839,24.691358024691358,0)" xlink:href="#W"/><use transform="matrix(0.06172839506172839,0,0,0.06172839506172839,35.80246913580247,0)" xlink:href="#aD"/><use transform="matrix(0.06172839506172839,0,0,0.06172839506172839,46.91358024691358,0)" xlink:href="#ah"/><use transform="matrix(0.06172839506172839,0,0,0.06172839506172839,59.25925925925926,0)" xlink:href="#ae"/></g><path fill="#3a414a" d="M33 0v-248h34V0H33" id="aE"/><path fill="#3a414a" d="M240 0l2-218c-23 76-54 145-80 218h-23L58-218 59 0H30v-248h44l77 211c21-75 51-140 76-211h43V0h-30" id="aF"/><g id="t"><use transform="matrix(0.06172839506172839,0,0,0.06172839506172839,0,0)" xlink:href="#aE"/><use transform="matrix(0.06172839506172839,0,0,0.06172839506172839,6.172839506172839,0)" xlink:href="#T"/><use transform="matrix(0.06172839506172839,0,0,0.06172839506172839,20.98765432098765,0)" xlink:href="#aF"/></g><path fill="#3a414a" d="M233-177c-1 41-23 64-60 70L243 0h-38l-65-103H63V0H30v-248c88 3 205-21 203 71zM63-129c60-2 137 13 137-47 0-61-80-42-137-45v92" id="aG"/><g id="u"><use transform="matrix(0.06172839506172839,0,0,0.06172839506172839,0,0)" xlink:href="#aG"/><use transform="matrix(0.06172839506172839,0,0,0.06172839506172839,15.987654320987653,0)" xlink:href="#Y"/><use transform="matrix(0.06172839506172839,0,0,0.06172839506172839,28.333333333333332,0)" xlink:href="#X"/><use transform="matrix(0.06172839506172839,0,0,0.06172839506172839,33.20987654320987,0)" xlink:href="#ah"/></g><path fill="#3a414a" d="M137 0h-34L2-248h35l83 218 83-218h36" id="aH"/><path fill="#3a414a" d="M212-179c-10-28-35-45-73-45-59 0-87 40-87 99 0 60 29 101 89 101 43 0 62-24 78-52l27 14C228-24 195 4 139 4 59 4 22-46 18-125c-6-104 99-153 187-111 19 9 31 26 39 46" id="aI"/><g id="v"><use transform="matrix(0.06172839506172839,0,0,0.06172839506172839,0,0)" xlink:href="#aH"/><use transform="matrix(0.06172839506172839,0,0,0.06172839506172839,14.814814814814813,0)" xlink:href="#ao"/><use transform="matrix(0.06172839506172839,0,0,0.06172839506172839,29.629629629629626,0)" xlink:href="#aI"/></g><path fill="#3a414a" d="M190 0L58-211 59 0H30v-248h39L202-35l-2-213h31V0h-41" id="aJ"/><path fill="#3a414a" d="M127-220V0H93v-220H8v-28h204v28h-85" id="aK"/><g id="w"><use transform="matrix(0.06172839506172839,0,0,0.06172839506172839,0,0)" xlink:href="#aJ"/><use transform="matrix(0.06172839506172839,0,0,0.06172839506172839,15.987654320987653,0)" xlink:href="#T"/><use transform="matrix(0.06172839506172839,0,0,0.06172839506172839,29.1358024691358,0)" xlink:href="#aK"/></g><path fill="#3a414a" d="M206 0h-36l-40-164L89 0H53L-1-190h32L70-26l43-164h34l41 164 42-164h31" id="aL"/><g id="x"><use transform="matrix(0.06172839506172839,0,0,0.06172839506172839,0,0)" xlink:href="#aB"/><use transform="matrix(0.06172839506172839,0,0,0.06172839506172839,12.345679012345679,0)" xlink:href="#af"/><use transform="matrix(0.06172839506172839,0,0,0.06172839506172839,24.691358024691358,0)" xlink:href="#ae"/><use transform="matrix(0.06172839506172839,0,0,0.06172839506172839,30.864197530864196,0)" xlink:href="#ah"/><use transform="matrix(0.06172839506172839,0,0,0.06172839506172839,43.20987654320987,0)" xlink:href="#aL"/><use transform="matrix(0.06172839506172839,0,0,0.06172839506172839,59.197530864197525,0)" xlink:href="#af"/><use transform="matrix(0.06172839506172839,0,0,0.06172839506172839,71.5432098765432,0)" xlink:href="#aj"/></g><g id="y"><use transform="matrix(0.06172839506172839,0,0,0.06172839506172839,0,0)" xlink:href="#T"/><use transform="matrix(0.06172839506172839,0,0,0.06172839506172839,14.814814814814813,0)" xlink:href="#ag"/><use transform="matrix(0.06172839506172839,0,0,0.06172839506172839,27.160493827160494,0)" xlink:href="#ag"/><use transform="matrix(0.06172839506172839,0,0,0.06172839506172839,39.50617283950617,0)" xlink:href="#X"/><use transform="matrix(0.06172839506172839,0,0,0.06172839506172839,44.382716049382715,0)" xlink:href="#ac"/><use transform="matrix(0.06172839506172839,0,0,0.06172839506172839,49.25925925925926,0)" xlink:href="#W"/><use transform="matrix(0.06172839506172839,0,0,0.06172839506172839,60.37037037037037,0)" xlink:href="#af"/><use transform="matrix(0.06172839506172839,0,0,0.06172839506172839,72.71604938271605,0)" xlink:href="#ae"/><use transform="matrix(0.06172839506172839,0,0,0.06172839506172839,78.88888888888889,0)" xlink:href="#ac"/><use transform="matrix(0.06172839506172839,0,0,0.06172839506172839,83.76543209876543,0)" xlink:href="#Y"/><use transform="matrix(0.06172839506172839,0,0,0.06172839506172839,96.11111111111111,0)" xlink:href="#al"/></g><path fill="#3a414a" d="M30 0v-248h33v221h125V0H30" id="aM"/><g id="z"><use transform="matrix(0.06172839506172839,0,0,0.06172839506172839,0,0)" xlink:href="#aM"/><use transform="matrix(0.06172839506172839,0,0,0.06172839506172839,12.345679012345679,0)" xlink:href="#Y"/><use transform="matrix(0.06172839506172839,0,0,0.06172839506172839,24.691358024691358,0)" xlink:href="#af"/><use transform="matrix(0.06172839506172839,0,0,0.06172839506172839,37.03703703703704,0)" xlink:href="#aa"/></g><path fill="#3a414a" d="M160-131c35 5 61 23 61 61C221 17 115-2 30 0v-248c76 3 177-17 177 60 0 33-19 50-47 57zm-97-11c50-1 110 9 110-42 0-47-63-36-110-37v79zm0 115c55-2 124 14 124-45 0-56-70-42-124-44v89" id="aN"/><g id="A"><use transform="matrix(0.06172839506172839,0,0,0.06172839506172839,0,0)" xlink:href="#aN"/><use transform="matrix(0.06172839506172839,0,0,0.06172839506172839,14.814814814814813,0)" xlink:href="#af"/><use transform="matrix(0.06172839506172839,0,0,0.06172839506172839,27.160493827160494,0)" xlink:href="#X"/><use transform="matrix(0.06172839506172839,0,0,0.06172839506172839,32.03703703703704,0)" xlink:href="#af"/><use transform="matrix(0.06172839506172839,0,0,0.06172839506172839,44.382716049382715,0)" xlink:href="#al"/><use transform="matrix(0.06172839506172839,0,0,0.06172839506172839,56.72839506172839,0)" xlink:href="#W"/><use transform="matrix(0.06172839506172839,0,0,0.06172839506172839,67.8395061728395,0)" xlink:href="#ah"/><use transform="matrix(0.06172839506172839,0,0,0.06172839506172839,80.18518518518519,0)" xlink:href="#ad"/></g><g id="B"><use transform="matrix(0.06172839506172839,0,0,0.06172839506172839,0,0)" xlink:href="#T"/><use transform="matrix(0.06172839506172839,0,0,0.06172839506172839,14.814814814814813,0)" xlink:href="#ag"/><use transform="matrix(0.06172839506172839,0,0,0.06172839506172839,27.160493827160494,0)" xlink:href="#ag"/></g><g id="C"><use transform="matrix(0.06172839506172839,0,0,0.06172839506172839,0,0)" xlink:href="#V"/><use transform="matrix(0.06172839506172839,0,0,0.06172839506172839,14.814814814814813,0)" xlink:href="#ah"/><use transform="matrix(0.06172839506172839,0,0,0.06172839506172839,27.160493827160494,0)" xlink:href="#ad"/><use transform="matrix(0.06172839506172839,0,0,0.06172839506172839,34.50617283950617,0)" xlink:href="#ab"/><use transform="matrix(0.06172839506172839,0,0,0.06172839506172839,45.61728395061728,0)" xlink:href="#ah"/><use transform="matrix(0.06172839506172839,0,0,0.06172839506172839,57.962962962962955,0)" xlink:href="#ad"/></g><g id="D"><use transform="matrix(0.06172839506172839,0,0,0.06172839506172839,0,0)" xlink:href="#aE"/><use transform="matrix(0.06172839506172839,0,0,0.06172839506172839,6.172839506172839,0)" xlink:href="#al"/><use transform="matrix(0.06172839506172839,0,0,0.06172839506172839,18.51851851851852,0)" xlink:href="#ae"/><use transform="matrix(0.06172839506172839,0,0,0.06172839506172839,24.691358024691358,0)" xlink:href="#ah"/><use transform="matrix(0.06172839506172839,0,0,0.06172839506172839,37.03703703703704,0)" xlink:href="#ad"/><use transform="matrix(0.06172839506172839,0,0,0.06172839506172839,44.382716049382715,0)" xlink:href="#al"/><use transform="matrix(0.06172839506172839,0,0,0.06172839506172839,56.72839506172839,0)" xlink:href="#ah"/><use transform="matrix(0.06172839506172839,0,0,0.06172839506172839,69.07407407407408,0)" xlink:href="#ae"/></g><path fill="#3a414a" d="M232-93c-1 65-40 97-104 97C67 4 28-28 28-90v-158h33c8 89-33 224 67 224 102 0 64-133 71-224h33v155" id="aO"/><g id="E"><use transform="matrix(0.06172839506172839,0,0,0.06172839506172839,0,0)" xlink:href="#aO"/><use transform="matrix(0.06172839506172839,0,0,0.06172839506172839,15.987654320987653,0)" xlink:href="#ap"/><use transform="matrix(0.06172839506172839,0,0,0.06172839506172839,27.098765432098766,0)" xlink:href="#ah"/><use transform="matrix(0.06172839506172839,0,0,0.06172839506172839,39.44444444444444,0)" xlink:href="#ad"/><use transform="matrix(0.06172839506172839,0,0,0.06172839506172839,46.79012345679012,0)" xlink:href="#ap"/></g><path d="M191-1237c0 287 13 826 7 1118 119 4 493-9 539-9 69 0 103 22 103 65 0 37-27 56-81 56-163-2-516 26-633-8-32-9-46-100-46-258 0-188-19-816-17-1004 0-59 21-88 63-88 43 0 65 43 65 128" id="aP"/><path d="M782-761C654-423 407 79 236 345c-58 1-101-10-98-36 0-3 64-126 193-369-48-118-120-295-222-529-16-38-40-95-65-172 25-37 49-56 72-56 8 0 15 4 22 13 15 21 39 78 79 169 42 96 106 239 189 430 117-227 161-366 263-585 27-58 114-20 113 29" id="aQ"/><path d="M548-125c0-58 15-243 15-302 0-184-58-276-174-276-89 0-157 44-205 131v456c0 77-21 116-63 116-39 0-58-27-58-80-2-270 3-399 4-702 58-32 117-59 114 38 61-53 132-80 213-80 198 0 297 134 297 401 0 67-21 291-19 358 1 33-26 63-59 63-43 0-65-41-65-123" id="aR"/><path d="M703-239c53-2 92 61 48 102C706-69 548 0 435 0 231 0 43-192 43-396c0-275 343-584 568-334 55 61 113 143 113 244 0 28-21 44-58 59-58 23-357 32-492 21-5 142 119 273 261 273 43 0 96-18 159-53s99-53 109-53zM585-539c-52-159-182-200-297-92-35 33-63 72-85 117 67-1 195-9 382-25" id="aS"/><g id="F"><use transform="matrix(0.013129340277777775,0,0,0.013129340277777775,0,0)" xlink:href="#aP"/><use transform="matrix(0.013129340277777775,0,0,0.013129340277777775,11.02864583333333,0)" xlink:href="#aQ"/><use transform="matrix(0.013129340277777775,0,0,0.013129340277777775,21.453342013888886,0)" xlink:href="#aR"/><use transform="matrix(0.013129340277777775,0,0,0.013129340277777775,31.274088541666657,0)" xlink:href="#aR"/><use transform="matrix(0.013129340277777775,0,0,0.013129340277777775,41.094835069444436,0)" xlink:href="#aS"/></g><path d="M135-1357c26-2 66 24 54 55 76 178 299 744 437 1089 113-328 232-650 340-982 29-87 49-136 60-146 57-53 114-15 114 90V-29c-40 25-91 53-108-1-16-201-8-717-13-958-56 164-185 507-282 826-22 73-53 150-119 150-19 0-38-14-57-43-11-18-37-84-81-198-64-166-163-416-292-749-3 340 19 663-5 973C138 1 74 29 77-55c8-231-15-894-12-1138 0-85 5-160 70-164" id="aT"/><path d="M729-724c-6 220-2 446 1 668 0 37-19 56-56 56-61 0-64-48-63-131C548-44 469 0 374 0 160 0 53-199 53-596c0-94 7-156 19-186s32-44 59-44c46 0 69 21 69 63 0 43-12 196-12 239 0 176 46 398 187 398 124 0 223-155 231-280 4-61-4-317 17-381 59-31 109-44 106 63" id="aU"/><path d="M113-1111c40 0 80 33 80 73 0 37-29 75-67 75-37 0-77-38-77-75 0-49 21-73 64-73zm68 365c0 46 2 107-5 186-18 209 2 366-28 543C100 6 44 17 44-55c0-200 11-280 9-527 0-75 5-130 15-166s29-54 60-54c35 0 53 19 53 56" id="aV"/><g id="G"><use transform="matrix(0.013129340277777775,0,0,0.013129340277777775,0,0)" xlink:href="#aT"/><use transform="matrix(0.013129340277777775,0,0,0.013129340277777775,15.847113715277773,0)" xlink:href="#aU"/><use transform="matrix(0.013129340277777775,0,0,0.013129340277777775,26.284939236111104,0)" xlink:href="#aR"/><use transform="matrix(0.013129340277777775,0,0,0.013129340277777775,36.10568576388888,0)" xlink:href="#aV"/><use transform="matrix(0.013129340277777775,0,0,0.013129340277777775,39.112304687499986,0)" xlink:href="#aR"/><use transform="matrix(0.013129340277777775,0,0,0.013129340277777775,48.93305121527776,0)" xlink:href="#aV"/></g><path d="M679-748c0-189-36-349-36-558 0-39 20-59 60-59 34 0 61 19 68 59 18 109 43 413 43 579 0 189-28 346-85 471C652-85 532 0 367 0 132 0-42-239 15-498c25-13 49-19 72-19 43 0 34 47 32 82-7 157 93 307 243 307 211 0 317-207 317-620" id="aW"/><g id="H"><use transform="matrix(0.01204427083333333,0,0,0.01204427083333333,0,0)" xlink:href="#aW"/><use transform="matrix(0.01204427083333333,0,0,0.01204427083333333,10.466471354166664,0)" xlink:href="#aU"/><use transform="matrix(0.01204427083333333,0,0,0.01204427083333333,20.041666666666664,0)" xlink:href="#aR"/></g><path d="M597-1365c189 0 304 139 273 341C818-680 760-349 678-12 645 1 577 13 577-27c0-91 76-428 99-557-95 69-188 104-280 104-179 0-352-161-352-341 0-260 293-544 553-544zM177-814c0 110 111 193 222 193 145 0 293-127 320-249 16-74 27-142 27-207 0-101-50-152-149-152-192 0-420 223-420 415" id="aX"/><path d="M386-118c0 58-93 207-132 226-57-16-85-35-85-57 19-38 77-140 90-181 9-28 33-53 60-53 45 0 67 22 67 65" id="aY"/><g id="I"><use transform="matrix(0.01204427083333333,0,0,0.01204427083333333,0,0)" xlink:href="#aX"/><use transform="matrix(0.01204427083333333,0,0,0.01204427083333333,12.22493489583333,0)" xlink:href="#aY"/></g><path d="M509-1365c210 0 377 134 377 341 0 100-46 213-137 340-8 21-281 327-351 409-40 47-68 94-87 137h517c42 1 63 22 63 65 0 49-199 73-597 73-75 0-113-22-113-67 0-44 20-102 60-174 99-178 337-397 440-558 53-82 78-157 78-223 2-135-111-210-254-210-177 0-246 103-220 268 6 35-31 66-67 66-45 0-68-51-68-152 0-197 158-315 359-315" id="aZ"/><path d="M526-1365c323 0 508 339 508 682 0 167-36 317-109 447C837-78 715 0 560 0 412 0 304-74 230-218c-113-220-101-630-12-871 68-183 169-276 308-276zm27 1235c219 0 348-316 348-559 0-275-135-553-387-553-73 0-138 82-185 247-78 271-89 406 21 654 62 140 129 211 203 211" id="ba"/><g id="J"><use transform="matrix(0.01204427083333333,0,0,0.01204427083333333,0,0)" xlink:href="#aZ"/><use transform="matrix(0.01204427083333333,0,0,0.01204427083333333,12.068359374999996,0)" xlink:href="#ba"/><use transform="matrix(0.01204427083333333,0,0,0.01204427083333333,26.148111979166654,0)" xlink:href="#aZ"/><use transform="matrix(0.01204427083333333,0,0,0.01204427083333333,38.21647135416666,0)" xlink:href="#aZ"/></g><path d="M317-1138c0 288 34 811 6 1107-31 21-58 31-79 31-39 0-32-58-32-109 0-361 1-737 3-1104-71 41-117 61-138 61-64 0-77-80-28-112 56-37 219-179 258-43 8 27 10 84 10 169" id="bb"/><path d="M237-756c48 0 106 36 106 85 0 58-72 92-136 92-38 0-57-19-57-58 0-46 39-119 87-119zm2 567c48 0 83 57 82 104 35 50-52 85-89 85-68 0-102-24-102-72s60-117 109-117" id="bc"/><path d="M700-737c1-78-51-498-51-586 0-27 16-41 49-41 24 0 42 12 53 36 48 104 72 358 72 763 74-3 109-5 109-5 40 0 60 19 60 58 0 34-22 56-65 68-15 4-50 8-106 11-1 86 1 225 2 295 0 92-25 138-74 138-89 0-65-177-65-270 0-83 11-135 11-157-144 5-358 33-519 33-57 0-86-70-86-210 0-201 30-451 12-673-8-105 72-113 103-51 48 94 10 594 10 708 0 31 3 62 9 93 74-7 231-18 472-33 3-83 4-142 4-177" id="bd"/><g id="K"><use transform="matrix(0.01204427083333333,0,0,0.01204427083333333,0,0)" xlink:href="#bb"/><use transform="matrix(0.01204427083333333,0,0,0.01204427083333333,6.275065104166665,0)" xlink:href="#ba"/><use transform="matrix(0.01204427083333333,0,0,0.01204427083333333,20.35481770833333,0)" xlink:href="#bc"/><use transform="matrix(0.01204427083333333,0,0,0.01204427083333333,26.11197916666666,0)" xlink:href="#bd"/><use transform="matrix(0.01204427083333333,0,0,0.01204427083333333,39.11979166666666,0)" xlink:href="#bb"/></g><path d="M756-439c-104-7-387 36-490 33-33 87-80 219-141 394C95 1 27 13 24-26c24-155 316-923 404-1175 11-31 37-139 81-159 8-3 24-5 49-5 16 0 29 8 39 25 55 83 91 240 125 355 35 118 243 835 244 924 1 32-31 62-63 61-23 0-43-13-51-41-37-129-36-182-96-398zm-32-124c-55-196-117-397-186-603-56 161-131 371-226 630 62-1 333-30 412-27" id="be"/><g id="L"><use transform="matrix(0.01204427083333333,0,0,0.01204427083333333,0,0)" xlink:href="#be"/><use transform="matrix(0.01204427083333333,0,0,0.01204427083333333,12.04427083333333,0)" xlink:href="#aT"/></g><path fill="#6f7681" d="M1051-61c-8 47-64 96-118 95-39 0-69-23-72-70-7-110 2-211-7-368-87-4-368 32-447 32-50 85-124 214-221 386-37 13-68 20-92 20-49 0-70-20-61-60 4-19 40-93 109-220 108-201 372-649 549-966 17-31 40-76 75-131 45-45 50-54 127-56 27 0 47 13 60 40 38 82 40 244 50 364 22 256 40 483 49 681 6 137 5 221-1 253zM844-597c-10-151-25-306-44-463-36 64-129 226-279 487 72-7 180-15 323-24" id="bf"/><path fill="#6f7681" d="M1759-1306c-18 85-188 485-510 1202-41 92-87 138-140 138-86 0-96-144-104-261-10-145-32-363-53-655C816-543 691-278 590-80 566-33 489 45 443 36c-35 0-58-20-69-60-7-23-8-96-3-220 9-249-8-603-49-1062 53-58 96-87 129-87 25 0 46 21 53 64 44 283 56 606 60 904 152-333 241-552 327-811 24-71 67-163 142-163 70 0 106 70 107 211 1 219 18 480 49 785 71-171 232-552 346-822 25-58 39-97 48-113 34-61 112-84 161-34 17 17 20 40 15 66" id="bg"/><path fill="#6f7681" d="M1012-362C974-155 762 34 525 34c-225 0-391-140-410-346-7-74 59-120 125-125 68-4 72 74 89 125 40 130 278 197 399 90 69-61 135-191 44-276-19-17-58-44-117-79-118-71-200-134-252-184-282-268 55-638 346-638 178 0 323 125 331 293-74 64-131 117-179 27-46-86-74-126-181-131-87-4-209 85-221 162-9 57 24 122 116 186 116 80 303 163 368 273 38 64 45 139 29 227" id="bh"/><g id="M"><use transform="matrix(0.014214409722222215,0,0,0.014214409722222215,0,0)" xlink:href="#bf"/><use transform="matrix(0.014214409722222215,0,0,0.014214409722222215,12.423394097222214,0)" xlink:href="#bg"/><use transform="matrix(0.014214409722222215,0,0,0.014214409722222215,34.18565538194443,0)" xlink:href="#bh"/></g><path fill="#6f7681" d="M423-1389c67 5 224-10 296-10 59 0 82 28 71 83-14 66-75 99-183 99-51 281-130 655-216 1063 101 1 144 35 130 101-12 58-117 87-315 87-31 0-61-2-91-5-52-96-27-177 99-174 24-147 162-784 210-1062-24-2-53-7-87-15-28-92-3-174 86-167" id="bi"/><path fill="#6f7681" d="M1019-56c-13 60-59 90-140 90-74 0-105-150-130-251-73-293-168-562-269-812-63 307-133 606-191 920-18 96-62 143-127 143-60 0-33-276 86-828 18-83 65-351 83-435 19-87 43-138 72-153 13-7 40-11 81-11 17 0 32 8 46 23 49 53 103 152 157 297 44 118 165 487 220 682 64-295 131-626 191-935-1-28 93-73 122-73 30 0 47 17 51 52 5 46-6 133-33 262" id="bj"/><path fill="#6f7681" d="M927-646c-43 44-145 20-219 20-81 0-285 4-327 6L252-12c-51 31-91 46-121 46-41 0-57-21-48-63 50-230 206-996 256-1225 11-55 33-94 66-116 29-20 250-29 662-29 100 0 142 33 129 99-9 47-57 90-111 90-201-4-383 3-579 0l-85 401h396c113-3 162 30 147 101-5 25-19 43-37 62" id="bk"/><path fill="#6f7681" d="M1270-986c-33 155-181 284-442 385 32 84 111 272 157 374 37 83 49 139 45 166-8 47-66 94-119 93-98-2-156-240-194-337-20-51-49-127-88-229-71 18-139 27-205 27l-84 394C319-15 276 34 211 34c-47 0-82-37-70-87 97-446 131-584 246-1131h5c-49-40-69-77-62-110 6-27 58-50 154-76 212-58 465-21 613 46 149 68 206 183 173 338zM465-701c203-11 590-136 613-291 13-87-33-148-154-186-86-27-217-39-347-34-25 104-62 274-112 511" id="bl"/><path fill="#6f7681" d="M1341-1299c-9 47-57 92-111 91H865C777-802 698-428 616-10c-51 29-93 44-125 44-68 0-48-95-34-153 82-345 109-563 223-1089-157 5-206 6-351-9-22-41-30-76-24-106 11-52 311-78 899-78 105 0 150 35 137 102" id="bm"/><path fill="#6f7681" d="M1221-1029C1073-321 821 32 473 32c-280 0-364-242-265-730 23-113 159-586 174-647 49-31 89-46 122-46 39 0 53 22 44 65-24 121-129 521-154 642-73 348-36 522 114 522 217 0 381-263 494-789 14-67 56-288 70-355 10-50 54-93 111-93 49 0 78 28 82 83 5 64-28 209-44 287" id="bn"/><path fill="#6f7681" d="M1023-268C957-86 772 34 556 34 230 34 91-225 169-579c42-190 125-368 253-532 151-192 315-288 491-288 141 0 233 79 253 240 8 69-53 126-120 126-35 0-63-28-84-85s-52-85-93-85c-115 0-227 81-334 242-87 131-144 262-172 394-52 235 21 412 235 412 121 0 212-56 273-168 64-25 183-31 152 55" id="bo"/><path fill="#6f7681" d="M790 31c-104 0-454 4-558 3C112 33 69 0 95-128c44-220 221-951 265-1172 14-66 241-99 681-99 121 0 173 35 160 102-9 45-54 89-106 89-94 0-403-8-496-7-53 0-84 28-93 83s-30 164-65 328c136 1 293-1 431-3 50-1 85 36 73 88-15 70-81 105-198 105-132 1-183-2-350-2l-99 466c170-7 344-10 521-10 90 0 128 32 114 97-13 63-61 94-143 94" id="bp"/><g id="N"><use transform="matrix(0.014214409722222215,0,0,0.014214409722222215,0,0)" xlink:href="#bi"/><use transform="matrix(0.014214409722222215,0,0,0.014214409722222215,8.002712673611107,0)" xlink:href="#bj"/><use transform="matrix(0.014214409722222215,0,0,0.014214409722222215,23.34006076388888,0)" xlink:href="#bk"/><use transform="matrix(0.014214409722222215,0,0,0.014214409722222215,36.48838975694443,0)" xlink:href="#bl"/><use transform="matrix(0.014214409722222215,0,0,0.014214409722222215,52.28059895833331,0)" xlink:href="#bf"/><use transform="matrix(0.014214409722222215,0,0,0.014214409722222215,67.56108940972219,0)" xlink:href="#bh"/><use transform="matrix(0.014214409722222215,0,0,0.014214409722222215,81.43435329861107,0)" xlink:href="#bm"/><use transform="matrix(0.014214409722222215,0,0,0.014214409722222215,96.85698784722217,0)" xlink:href="#bl"/><use transform="matrix(0.014214409722222215,0,0,0.014214409722222215,112.64919704861106,0)" xlink:href="#bn"/><use transform="matrix(0.014214409722222215,0,0,0.014214409722222215,127.65961371527771,0)" xlink:href="#bo"/><use transform="matrix(0.014214409722222215,0,0,0.014214409722222215,142.07302517361103,0)" xlink:href="#bm"/><use transform="matrix(0.014214409722222215,0,0,0.014214409722222215,157.49565972222214,0)" xlink:href="#bn"/><use transform="matrix(0.014214409722222215,0,0,0.014214409722222215,172.5060763888888,0)" xlink:href="#bl"/><use transform="matrix(0.014214409722222215,0,0,0.014214409722222215,188.2982855902777,0)" xlink:href="#bp"/></g><path fill="#6f7681" d="M1210-659c-38 179-110 333-217 463C866-42 718 34 549 34 230 34 96-239 175-592c43-191 117-364 227-519 136-192 290-288 462-288 166 0 278 85 335 257 47 141 50 302 11 483zM882-343c103-155 173-374 147-611-16-145-75-228-192-253-35 0-77 13-127 35-174 79-298 337-346 570-62 297 20 445 251 445 97 0 185-63 267-186" id="bq"/><g id="O"><use transform="matrix(0.014214409722222215,0,0,0.014214409722222215,0,0)" xlink:href="#bm"/><use transform="matrix(0.014214409722222215,0,0,0.014214409722222215,13.532118055555548,0)" xlink:href="#bq"/></g><path fill="#6f7681" d="M1199-672c-44 193-141 359-298 496C740-36 562 34 368 34 275 34 55-23 79-109c15-53 79-114 148-94 29-146 96-465 201-958-61 7-87-38-60-83 72-119 148-155 340-155 362 0 580 338 491 727zM394-169c301 14 557-252 608-510 38-194-12-378-117-458-65-49-155-76-272-76-47 233-120 581-219 1044" id="br"/><path fill="#6f7681" d="M1290-855c-62 314-452 469-860 420-54 250-74 343-74 343C338-8 298 34 237 34c-47 0-81-36-71-87 17-81 81-363 95-423-97-37-45-184 41-191 51-236 90-415 116-536l-52 5c-30-43-41-81-34-113-5-46 249-88 313-88 197 0 356 41 479 122 149 98 202 238 166 422zm-202 7c28-130-17-226-134-289-87-47-204-70-352-70-45 191-88 382-129 572 36 5 79 7 128 7 293 0 456-73 487-220" id="bs"/><path fill="#6f7681" d="M304-154c141 3 363-7 507-8 91 0 129 33 115 99-13 60-57 90-133 90-167 0-530 29-644-12-42-15-44-116-6-288 41-188 155-815 196-1004 17-81 59-122 124-122 66 0 91 55 65 162-66 270-160 809-224 1083" id="bt"/><path fill="#6f7681" d="M1315-1304c-10 40-94 149-257 326-25 26-130 137-317 333-47 247-72 432-137 635-43 29-81 44-114 44-51 0-66-59-40-176 43-192 60-270 109-498-95-182-182-399-259-650 83-113 138-161 200-19 17 39 80 189 195 447 71-68 175-171 306-316 50-55 132-172 184-206 62-41 148 9 130 80" id="bu"/><g id="P"><use transform="matrix(0.014214409722222215,0,0,0.014214409722222215,0,0)" xlink:href="#br"/><use transform="matrix(0.014214409722222215,0,0,0.014214409722222215,15.650065104166659,0)" xlink:href="#bp"/><use transform="matrix(0.014214409722222215,0,0,0.014214409722222215,29.409613715277764,0)" xlink:href="#bs"/><use transform="matrix(0.014214409722222215,0,0,0.014214409722222215,45.372395833333314,0)" xlink:href="#bt"/><use transform="matrix(0.014214409722222215,0,0,0.014214409722222215,58.39279513888886,0)" xlink:href="#bq"/><use transform="matrix(0.014214409722222215,0,0,0.014214409722222215,72.66406249999997,0)" xlink:href="#bu"/></g><use transform="matrix(0.014214409722222215,0,0,0.014214409722222215,0,0)" xlink:href="#bf" id="Q"/><path fill="#6f7681" d="M470-1391c38 0 92 42 73 85 38 175 117 635 187 995 168-300 339-598 504-901 49-90 82-141 97-153 27-23 54-34 80-34 66 0 89 49 68 148L1216-12c-49 31-89 46-120 46-51 0-66-55-41-165 44-193 61-281 141-654-67 106-287 515-396 703-42 72-95 104-148 104-48 0-81-54-98-162-18-113-57-337-118-674-82 419-90 461-180 804-47 29-85 44-116 44-83 0-37-121-25-174 46-198 166-856 209-1053 29-132 77-198 146-198" id="bv"/><g id="R"><use transform="matrix(0.014214409722222215,0,0,0.014214409722222215,0,0)" xlink:href="#br"/><use transform="matrix(0.014214409722222215,0,0,0.014214409722222215,15.650065104166659,0)" xlink:href="#bn"/><use transform="matrix(0.014214409722222215,0,0,0.014214409722222215,30.660481770833318,0)" xlink:href="#bv"/><use transform="matrix(0.014214409722222215,0,0,0.014214409722222215,48.925998263888864,0)" xlink:href="#bv"/><use transform="matrix(0.014214409722222215,0,0,0.014214409722222215,67.19151475694441,0)" xlink:href="#bu"/></g><g id="S"><use transform="matrix(0.014214409722222215,0,0,0.014214409722222215,0,0)" xlink:href="#bf"/><use transform="matrix(0.014214409722222215,0,0,0.014214409722222215,15.28049045138888,0)" xlink:href="#bs"/><use transform="matrix(0.014214409722222215,0,0,0.014214409722222215,31.24327256944443,0)" xlink:href="#bs"/><use transform="matrix(0.014214409722222215,0,0,0.014214409722222215,47.20605468749998,0)" xlink:href="#bt"/><use transform="matrix(0.014214409722222215,0,0,0.014214409722222215,60.22645399305553,0)" xlink:href="#bi"/><use transform="matrix(0.014214409722222215,0,0,0.014214409722222215,68.22916666666663,0)" xlink:href="#bo"/><use transform="matrix(0.014214409722222215,0,0,0.014214409722222215,82.40093315972219,0)" xlink:href="#bf"/><use transform="matrix(0.014214409722222215,0,0,0.014214409722222215,94.76746961805551,0)" xlink:href="#bm"/><use transform="matrix(0.014214409722222215,0,0,0.014214409722222215,110.19010416666661,0)" xlink:href="#bi"/><use transform="matrix(0.014214409722222215,0,0,0.014214409722222215,118.19281684027771,0)" xlink:href="#bq"/><use transform="matrix(0.014214409722222215,0,0,0.014214409722222215,134.1129557291666,0)" xlink:href="#bj"/></g></defs></g></svg>